<svg xmlns="http://www.w3.org/2000/svg" width="102.118" height="77.309" viewBox="0 0 102.118 77.309">
  <g id="air-fan" transform="translate(-360.836 -962.346)">
    <g id="Grupo_162" data-name="Grupo 162">
      <g id="Grupo_155" data-name="Grupo 155">
        <g id="Grupo_126" data-name="Grupo 126">
          <path id="Caminho_116" data-name="Caminho 116" d="M420.363,1004.062a4.244,4.244,0,1,0,0-6,4.22,4.22,0,0,0,0,6Z" fill="#459baf"/>
        </g>
        <g id="Grupo_127" data-name="Grupo 127">
          <path id="Caminho_117" data-name="Caminho 117" d="M436.776,1026.2a28.615,28.615,0,0,1-26.825,0,9.329,9.329,0,0,1-1.379.383,29.537,29.537,0,0,0,29.583,0,9.466,9.466,0,0,1-1.379-.382Z" fill="#459baf"/>
        </g>
        <g id="Grupo_128" data-name="Grupo 128">
          <path id="Caminho_118" data-name="Caminho 118" d="M448.5,1014.452a9.194,9.194,0,0,1,.389,1.384,29.611,29.611,0,0,0,0-29.551,9.045,9.045,0,0,1-.389,1.384,28.606,28.606,0,0,1,0,26.783Z" fill="#459baf"/>
        </g>
        <g id="Grupo_129" data-name="Grupo 129">
          <path id="Caminho_119" data-name="Caminho 119" d="M398.226,987.67a9.251,9.251,0,0,1-.387-1.385,29.609,29.609,0,0,0,0,29.549,9.277,9.277,0,0,1,.389-1.384,28.609,28.609,0,0,1,0-26.78Z" fill="#459baf"/>
        </g>
        <g id="Grupo_130" data-name="Grupo 130">
          <path id="Caminho_120" data-name="Caminho 120" d="M423.362,972.579a28.34,28.34,0,0,1,13.411,3.339,9.191,9.191,0,0,1,1.376-.384,29.538,29.538,0,0,0-29.573,0,9.178,9.178,0,0,1,1.378.383,28.346,28.346,0,0,1,13.408-3.337Z" fill="#459baf"/>
        </g>
        <g id="Grupo_131" data-name="Grupo 131">
          <path id="Caminho_121" data-name="Caminho 121" d="M423.362,978.554a22.5,22.5,0,0,1,8.482,1.653c.184-.315.366-.61.544-.878a23.687,23.687,0,0,0-18.049,0c.177.268.359.564.543.879a22.483,22.483,0,0,1,8.48-1.653Z" fill="#459baf"/>
        </g>
        <g id="Grupo_132" data-name="Grupo 132">
          <path id="Caminho_122" data-name="Caminho 122" d="M402.515,992.582c-.311-.182-.6-.361-.867-.535a23.647,23.647,0,0,0,0,18.026c.265-.175.556-.353.866-.536a22.649,22.649,0,0,1,0-16.956Z" fill="#459baf"/>
        </g>
        <g id="Grupo_133" data-name="Grupo 133">
          <path id="Caminho_123" data-name="Caminho 123" d="M445.093,992.034c-.268.178-.564.36-.877.544a22.588,22.588,0,0,1,0,16.964c.316.185.611.364.878.543a23.68,23.68,0,0,0,0-18.051Z" fill="#459baf"/>
        </g>
        <g id="Grupo_134" data-name="Grupo 134">
          <path id="Caminho_124" data-name="Caminho 124" d="M423.363,1023.567a22.463,22.463,0,0,1-8.482-1.652q-.276.474-.544.878a23.7,23.7,0,0,0,18.051,0c-.178-.268-.359-.563-.544-.878a22.467,22.467,0,0,1-8.481,1.652Z" fill="#459baf"/>
        </g>
        <g id="Grupo_135" data-name="Grupo 135">
          <path id="Caminho_125" data-name="Caminho 125" d="M423.363,1017.219a16.144,16.144,0,0,1-5.682-1.042c-.134.314-.271.624-.4.93a17.033,17.033,0,0,0,12.175,0q-.2-.459-.406-.93a16.161,16.161,0,0,1-5.682,1.042Z" fill="#459baf"/>
        </g>
        <g id="Grupo_136" data-name="Grupo 136">
          <path id="Caminho_126" data-name="Caminho 126" d="M438.475,1006.739q.469.2.928.407a17.259,17.259,0,0,0,0-12.171q-.459.2-.93.406a16.241,16.241,0,0,1,0,11.358Z" fill="#459baf"/>
        </g>
        <g id="Grupo_137" data-name="Grupo 137">
          <path id="Caminho_127" data-name="Caminho 127" d="M417.274,985.011c.136.306.272.617.406.93a16.028,16.028,0,0,1,11.364,0c.134-.313.269-.624.4-.929a17.037,17.037,0,0,0-12.174,0Z" fill="#459baf"/>
        </g>
        <g id="Grupo_138" data-name="Grupo 138">
          <path id="Caminho_128" data-name="Caminho 128" d="M408.251,995.381c-.314-.136-.625-.272-.93-.406a17.267,17.267,0,0,0,0,12.17q.457-.2.929-.406a16.247,16.247,0,0,1,0-11.358Z" fill="#459baf"/>
        </g>
        <g id="Grupo_139" data-name="Grupo 139">
          <path id="Caminho_129" data-name="Caminho 129" d="M411.219,1013.2a17.059,17.059,0,0,1-3.9-6.057,50.051,50.051,0,0,0-4.808,2.391,22.506,22.506,0,0,0,12.367,12.377,49.866,49.866,0,0,0,2.394-4.807A17.109,17.109,0,0,1,411.219,1013.2Z" fill="#459baf"/>
        </g>
        <g id="Grupo_140" data-name="Grupo 140">
          <path id="Caminho_130" data-name="Caminho 130" d="M414.337,1022.793a23.538,23.538,0,0,1-12.691-12.719,8.285,8.285,0,0,0-1.286,1,9.114,9.114,0,0,0-2.136,3.378,28.364,28.364,0,0,0,4.995,6.751,28.669,28.669,0,0,0,6.73,5,9.127,9.127,0,0,0,3.4-2.144,8.212,8.212,0,0,0,.988-1.267Z" fill="#459baf"/>
        </g>
        <g id="Grupo_141" data-name="Grupo 141">
          <path id="Caminho_131" data-name="Caminho 131" d="M397.837,1015.834a9.18,9.18,0,0,0,10.736,10.751,29.731,29.731,0,0,1-6.066-4.667,29.363,29.363,0,0,1-4.67-6.084Z" fill="#459baf"/>
        </g>
        <g id="Grupo_142" data-name="Grupo 142">
          <path id="Caminho_132" data-name="Caminho 132" d="M418.48,1005.942a6.886,6.886,0,0,1-1.62-2.6c-2.661.977-5.775,2.172-8.61,3.4a16.01,16.01,0,0,0,9.43,9.438c1.222-2.833,2.418-5.947,3.4-8.61a6.871,6.871,0,0,1-2.594-1.626Z" fill="#459baf"/>
        </g>
        <g id="Grupo_143" data-name="Grupo 143">
          <path id="Caminho_133" data-name="Caminho 133" d="M432.388,979.329a23.691,23.691,0,0,1,12.7,12.7,8.357,8.357,0,0,0,1.268-.986,9.156,9.156,0,0,0,2.138-3.379,28.59,28.59,0,0,0-11.726-11.751,9.133,9.133,0,0,0-3.4,2.144,8.282,8.282,0,0,0-.986,1.268Z" fill="#459baf"/>
        </g>
        <g id="Grupo_144" data-name="Grupo 144">
          <path id="Caminho_134" data-name="Caminho 134" d="M428.24,996.182a6.856,6.856,0,0,1,1.63,2.59c2.66-.976,5.771-2.171,8.6-3.391a16.012,16.012,0,0,0-9.428-9.439c-1.224,2.835-2.42,5.95-3.4,8.613a6.837,6.837,0,0,1,2.592,1.627Z" fill="#459baf"/>
        </g>
        <g id="Grupo_145" data-name="Grupo 145">
          <path id="Caminho_135" data-name="Caminho 135" d="M431.843,980.208a49.6,49.6,0,0,0-2.393,4.8,17.03,17.03,0,0,1,9.952,9.961,49.633,49.633,0,0,0,4.812-2.4,22.59,22.59,0,0,0-12.371-12.369Z" fill="#459baf"/>
        </g>
        <g id="Grupo_146" data-name="Grupo 146">
          <path id="Caminho_136" data-name="Caminho 136" d="M448.887,986.285a9.183,9.183,0,0,0-10.738-10.75,29.544,29.544,0,0,1,10.738,10.75Z" fill="#459baf"/>
        </g>
        <g id="Grupo_147" data-name="Grupo 147">
          <path id="Caminho_137" data-name="Caminho 137" d="M408.251,995.381c2.835,1.222,5.949,2.418,8.611,3.4a6.845,6.845,0,0,1,4.215-4.222c-.978-2.663-2.175-5.777-3.4-8.613a16.021,16.021,0,0,0-9.43,9.44Z" fill="#459baf"/>
        </g>
        <g id="Grupo_148" data-name="Grupo 148">
          <path id="Caminho_138" data-name="Caminho 138" d="M401.647,992.047a23.552,23.552,0,0,1,12.692-12.719,8.431,8.431,0,0,0-.987-1.269,9.111,9.111,0,0,0-3.4-2.143,28.62,28.62,0,0,0-11.727,11.753,9.125,9.125,0,0,0,2.137,3.378,8.314,8.314,0,0,0,1.284,1Z" fill="#459baf"/>
        </g>
        <g id="Grupo_149" data-name="Grupo 149">
          <path id="Caminho_139" data-name="Caminho 139" d="M408.575,975.533a9.185,9.185,0,0,0-10.737,10.751,29.335,29.335,0,0,1,4.668-6.081,29.657,29.657,0,0,1,6.069-4.67Z" fill="#459baf"/>
        </g>
        <g id="Grupo_150" data-name="Grupo 150">
          <path id="Caminho_140" data-name="Caminho 140" d="M411.219,988.917a17.11,17.11,0,0,1,6.055-3.906,49.264,49.264,0,0,0-2.393-4.8,22.521,22.521,0,0,0-12.366,12.375,49.878,49.878,0,0,0,4.807,2.393,17.066,17.066,0,0,1,3.9-6.057Z" fill="#459baf"/>
        </g>
        <g id="Grupo_151" data-name="Grupo 151">
          <path id="Caminho_141" data-name="Caminho 141" d="M438.154,1026.587a9.183,9.183,0,0,0,10.734-10.75,29.475,29.475,0,0,1-4.668,6.084,29.8,29.8,0,0,1-6.066,4.666Z" fill="#459baf"/>
        </g>
        <g id="Grupo_152" data-name="Grupo 152">
          <path id="Caminho_142" data-name="Caminho 142" d="M428.245,1005.942a6.89,6.89,0,0,1-2.6,1.626c.977,2.663,2.174,5.777,3.4,8.61a16.005,16.005,0,0,0,9.429-9.438c-2.833-1.221-5.942-2.416-8.6-3.393A6.867,6.867,0,0,1,428.245,1005.942Z" fill="#459baf"/>
        </g>
        <g id="Grupo_153" data-name="Grupo 153">
          <path id="Caminho_143" data-name="Caminho 143" d="M435.505,1013.2a17.091,17.091,0,0,1-6.054,3.9,49.541,49.541,0,0,0,2.393,4.807,22.556,22.556,0,0,0,12.372-12.372,49.782,49.782,0,0,0-4.814-2.4,17.038,17.038,0,0,1-3.9,6.058Z" fill="#459baf"/>
        </g>
        <g id="Grupo_154" data-name="Grupo 154">
          <path id="Caminho_144" data-name="Caminho 144" d="M448.5,1014.452a9.135,9.135,0,0,0-2.135-3.379,8.409,8.409,0,0,0-1.268-.987,23.67,23.67,0,0,1-12.708,12.708,8.159,8.159,0,0,0,.987,1.266,9.152,9.152,0,0,0,3.4,2.144,28.574,28.574,0,0,0,11.722-11.752Z" fill="#459baf"/>
        </g>
      </g>
      <g id="Grupo_156" data-name="Grupo 156">
        <path id="Caminho_145" data-name="Caminho 145" d="M459.172,1039.655H364.618a3.786,3.786,0,0,1-3.782-3.783V966.129a3.786,3.786,0,0,1,3.782-3.783h94.554a3.787,3.787,0,0,1,3.782,3.783v69.743A3.787,3.787,0,0,1,459.172,1039.655Zm-94.554-75.418a1.894,1.894,0,0,0-1.891,1.892v69.743a1.893,1.893,0,0,0,1.891,1.891h94.554a1.893,1.893,0,0,0,1.891-1.891V966.129a1.894,1.894,0,0,0-1.891-1.892Z" fill="#459baf"/>
      </g>
      <g id="Grupo_157" data-name="Grupo 157">
        <path id="Caminho_146" data-name="Caminho 146" d="M454.8,1033.825H390.415a3.314,3.314,0,0,1-3.31-3.31v-59.03a3.313,3.313,0,0,1,3.31-3.309H454.8a3.313,3.313,0,0,1,3.31,3.309v59.03A3.314,3.314,0,0,1,454.8,1033.825Zm-64.387-64.7a2.367,2.367,0,0,0-2.364,2.364v59.03a2.368,2.368,0,0,0,2.364,2.365H454.8a2.368,2.368,0,0,0,2.364-2.365v-59.03a2.367,2.367,0,0,0-2.364-2.364Z" fill="#459baf"/>
      </g>
      <g id="Grupo_158" data-name="Grupo 158">
        <path id="Caminho_147" data-name="Caminho 147" d="M379.57,1003.7h-9.249a2.7,2.7,0,0,1,0-5.4h9.249a2.7,2.7,0,0,1,0,5.4Zm-9.249-4.457a1.755,1.755,0,1,0,0,3.511h9.249a1.755,1.755,0,1,0,0-3.511Z" fill="#459baf"/>
      </g>
      <g id="Grupo_159" data-name="Grupo 159">
        <path id="Caminho_148" data-name="Caminho 148" d="M379.57,1033.257h-9.249a2.7,2.7,0,0,1,0-5.4h9.249a2.7,2.7,0,0,1,0,5.4Zm-9.249-4.457a1.755,1.755,0,1,0,0,3.511h9.249a1.755,1.755,0,1,0,0-3.511Z" fill="#459baf"/>
      </g>
      <g id="Grupo_160" data-name="Grupo 160">
        <path id="Caminho_149" data-name="Caminho 149" d="M379.57,995.851h-9.249a2.7,2.7,0,1,1,0-5.4h9.249a2.7,2.7,0,0,1,0,5.4Zm-9.249-4.457a1.756,1.756,0,1,0,0,3.511h9.249a1.756,1.756,0,1,0,0-3.511Z" fill="#459baf"/>
      </g>
      <g id="Grupo_161" data-name="Grupo 161">
        <path id="Caminho_150" data-name="Caminho 150" d="M379.57,988h-9.249a2.7,2.7,0,1,1,0-5.4h9.249a2.7,2.7,0,0,1,0,5.4Zm-9.249-4.456a1.755,1.755,0,1,0,0,3.511h9.249a1.755,1.755,0,1,0,0-3.511Z" fill="#459baf"/>
      </g>
    </g>
  </g>
</svg>
