<svg xmlns="http://www.w3.org/2000/svg" width="132.592" height="415.869" viewBox="0 0 132.592 415.869">
  <g id="air-right" transform="translate(-1637.205 9.441)">
    <path id="Caminho_1230" data-name="Caminho 1230" d="M1695.6-9.441V307.194a23.072,23.072,0,0,1-23.072,23.072h-17.9a13.923,13.923,0,0,1-13.923-13.922v-11.7a13.17,13.17,0,0,1,13.17-13.169h7.07a10.259,10.259,0,0,1,10.259,10.258h0a10.259,10.259,0,0,1-10.259,10.259h-5.822" fill="none" stroke="#80c1d3" stroke-miterlimit="10" stroke-width="7"/>
    <path id="Caminho_1231" data-name="Caminho 1231" d="M1709.743-9.441V155.594a10.813,10.813,0,0,0,10.813,10.813h13.863a10.814,10.814,0,0,0,10.814-10.813v-5.666a10.814,10.814,0,0,0-10.814-10.813h0a10.813,10.813,0,0,0-10.813,10.813v1.386" fill="none" stroke="#80c1d3" stroke-miterlimit="10" stroke-width="7"/>
    <path id="Caminho_1232" data-name="Caminho 1232" d="M1709.743,179.082V381.025a21.9,21.9,0,0,0,21.9,21.9h13.12a21.53,21.53,0,0,0,21.53-21.53V361.786a18.087,18.087,0,0,0-18.088-18.087h0a18.087,18.087,0,0,0-18.087,18.087v11.578a8.526,8.526,0,0,0,8.526,8.526h0a8.526,8.526,0,0,0,8.525-8.526V362.171" fill="none" stroke="#80c1d3" stroke-miterlimit="10" stroke-width="7"/>
    <path id="Caminho_1233" data-name="Caminho 1233" d="M1679.245-9.441V89.84a13.725,13.725,0,0,1-13.725,13.724h0A13.724,13.724,0,0,1,1651.8,89.84V80.2" fill="none" stroke="#80c1d3" stroke-miterlimit="10" stroke-width="7"/>
  </g>
</svg>
