<svg xmlns="http://www.w3.org/2000/svg" width="174.588" height="553.762" viewBox="0 0 174.588 553.762">
  <g id="air-left" transform="translate(-86.216 9.441)">
    <path id="Caminho_1226" data-name="Caminho 1226" d="M162.971-9.441V413.074a30.786,30.786,0,0,1-30.787,30.786h-23.89a18.578,18.578,0,0,1-18.578-18.577V409.665a17.574,17.574,0,0,1,17.574-17.574h9.434a13.689,13.689,0,0,1,13.689,13.689h0a13.689,13.689,0,0,1-13.689,13.689h-7.769" fill="none" stroke="#80c1d3" stroke-miterlimit="10" stroke-width="7"/>
    <path id="Caminho_1227" data-name="Caminho 1227" d="M181.84-9.441V210.78a14.429,14.429,0,0,0,14.429,14.429h18.5A14.429,14.429,0,0,0,229.2,210.78v-7.56a14.429,14.429,0,0,0-14.429-14.429h0a14.43,14.43,0,0,0-14.429,14.429v1.849" fill="none" stroke="#80c1d3" stroke-miterlimit="10" stroke-width="7"/>
    <path id="Caminho_1228" data-name="Caminho 1228" d="M181.84,242.123v269.47a29.228,29.228,0,0,0,29.228,29.228h17.507a28.729,28.729,0,0,0,28.729-28.73v-26.17a24.135,24.135,0,0,0-24.135-24.135h0a24.135,24.135,0,0,0-24.135,24.135V501.37a11.377,11.377,0,0,0,11.376,11.377h0a11.377,11.377,0,0,0,11.376-11.377V486.434" fill="none" stroke="#80c1d3" stroke-miterlimit="10" stroke-width="7"/>
    <path id="Caminho_1229" data-name="Caminho 1229" d="M141.143-9.441V123.038a18.315,18.315,0,0,1-18.314,18.314h0a18.315,18.315,0,0,1-18.314-18.314V110.171" fill="none" stroke="#80c1d3" stroke-miterlimit="10" stroke-width="7"/>
  </g>
</svg>
