<svg xmlns="http://www.w3.org/2000/svg" width="185.784" height="51.764" viewBox="0 0 185.784 51.764">
  <g id="air-home" transform="translate(-565.865 -973.078)">
    <g id="Grupo_164" data-name="Grupo 164">
      <path id="Caminho_151" data-name="Caminho 151" d="M747.4,1024.842H570.114a4.254,4.254,0,0,1-4.249-4.249V977.327a4.254,4.254,0,0,1,4.249-4.249H747.4a4.254,4.254,0,0,1,4.249,4.249v43.266A4.254,4.254,0,0,1,747.4,1024.842ZM570.114,975.071a2.259,2.259,0,0,0-2.256,2.256v43.266a2.259,2.259,0,0,0,2.256,2.256H747.4a2.259,2.259,0,0,0,2.256-2.256V977.327a2.259,2.259,0,0,0-2.256-2.256Z" fill="#459baf"/>
    </g>
    <g id="Grupo_165" data-name="Grupo 165">
      <path id="Caminho_152" data-name="Caminho 152" d="M751.15,1002.32h-150.4A3.756,3.756,0,0,1,597,998.569v-6.35a3.755,3.755,0,0,1,3.751-3.75h150.4Zm-150.4-12.855a2.758,2.758,0,0,0-2.754,2.754v6.35a2.757,2.757,0,0,0,2.754,2.754H750.154V989.465Z" fill="#459baf"/>
    </g>
    <g id="Grupo_166" data-name="Grupo 166">
      <path id="Caminho_153" data-name="Caminho 153" d="M716.871,1024.842H600.642v-1.833a12.545,12.545,0,0,1,12.531-12.531H704.34a12.545,12.545,0,0,1,12.531,12.531Zm-114.234-1.993h112.24a10.552,10.552,0,0,0-10.537-10.378H613.173A10.55,10.55,0,0,0,602.637,1022.849Z" fill="#459baf"/>
    </g>
    <g id="Grupo_167" data-name="Grupo 167">
      <path id="Caminho_154" data-name="Caminho 154" d="M604.624,982.222H566.363V977.4h38.261a2.283,2.283,0,0,1,2.281,2.281v.259A2.283,2.283,0,0,1,604.624,982.222Zm-37.264-1h37.264a1.287,1.287,0,0,0,1.285-1.285v-.259a1.287,1.287,0,0,0-1.285-1.285H567.36Z" fill="#459baf"/>
    </g>
    <g id="Grupo_168" data-name="Grupo 168">
      <path id="Caminho_155" data-name="Caminho 155" d="M590.251,992.812H576a2.062,2.062,0,0,1-2.059-2.059v-.226A2.061,2.061,0,0,1,576,988.469h14.252a2.061,2.061,0,0,1,2.059,2.058v.226A2.062,2.062,0,0,1,590.251,992.812ZM576,989.465a1.064,1.064,0,0,0-1.062,1.062v.226A1.063,1.063,0,0,0,576,991.815h14.252a1.063,1.063,0,0,0,1.062-1.062v-.226a1.063,1.063,0,0,0-1.062-1.062Z" fill="#459baf"/>
    </g>
    <g id="Grupo_169" data-name="Grupo 169">
      <path id="Caminho_156" data-name="Caminho 156" d="M590.251,1002.32H576a2.062,2.062,0,0,1-2.059-2.059v-.226A2.062,2.062,0,0,1,576,997.976h14.252a2.062,2.062,0,0,1,2.059,2.059v.226A2.062,2.062,0,0,1,590.251,1002.32ZM576,998.973a1.064,1.064,0,0,0-1.062,1.062v.226a1.063,1.063,0,0,0,1.062,1.062h14.252a1.063,1.063,0,0,0,1.062-1.062v-.226a1.063,1.063,0,0,0-1.062-1.062Z" fill="#459baf"/>
    </g>
  </g>
</svg>
