<svg xmlns="http://www.w3.org/2000/svg" width="55.811" height="87.067" viewBox="0 0 55.811 87.067">
  <g id="buy-04" transform="translate(-1049.773 -4552.498)">
    <path id="Caminho_1248" data-name="Caminho 1248" d="M1102.187,4552.5H1053.17a3.4,3.4,0,0,0-3.4,3.4v69.251a3.4,3.4,0,0,0,3.4,3.4h49.017a3.4,3.4,0,0,0,3.4-3.4V4555.9A3.4,3.4,0,0,0,1102.187,4552.5Zm-.571,68.39a1.533,1.533,0,0,1-1.534,1.533h-44.808a1.533,1.533,0,0,1-1.533-1.533V4603.4a1.533,1.533,0,0,1,1.533-1.534h44.808a1.534,1.534,0,0,1,1.534,1.534Zm0-22.658a1.534,1.534,0,0,1-1.534,1.534h-44.808a1.533,1.533,0,0,1-1.533-1.534v-17.484a1.533,1.533,0,0,1,1.533-1.534h44.808a1.534,1.534,0,0,1,1.534,1.534Zm0-22.657a1.534,1.534,0,0,1-1.534,1.534h-44.808a1.533,1.533,0,0,1-1.533-1.534v-17.484a1.533,1.533,0,0,1,1.533-1.534h44.808a1.534,1.534,0,0,1,1.534,1.534Z" fill="#80c1d3"/>
    <circle id="Elipse_8" data-name="Elipse 8" cx="2.981" cy="2.981" r="2.981" transform="translate(1074.697 4563.85)" fill="#80c1d3"/>
    <circle id="Elipse_9" data-name="Elipse 9" cx="2.981" cy="2.981" r="2.981" transform="translate(1074.697 4586.507)" fill="#80c1d3"/>
    <circle id="Elipse_10" data-name="Elipse 10" cx="2.981" cy="2.981" r="2.981" transform="translate(1074.697 4609.164)" fill="#80c1d3"/>
    <path id="Caminho_1249" data-name="Caminho 1249" d="M1055.782,4639.565h0a2.042,2.042,0,0,1-2.041-2.042v-10.44h6.612l-2.585,10.911A2.041,2.041,0,0,1,1055.782,4639.565Z" fill="#80c1d3"/>
    <path id="Caminho_1250" data-name="Caminho 1250" d="M1099.575,4639.565h0a2.041,2.041,0,0,0,2.041-2.042v-10.44H1095l2.585,10.911A2.041,2.041,0,0,0,1099.575,4639.565Z" fill="#80c1d3"/>
  </g>
</svg>
