<svg xmlns="http://www.w3.org/2000/svg" width="62.466" height="78.559" viewBox="0 0 62.466 78.559">
  <path id="buy-05" d="M1296.594,4545.815c-3.334,0-5.533,2.551-7.31,4.825-1.275,1.633-2.5,3.237-3.4,4.185l-1.814-3.125a1.8,1.8,0,0,0-2.427-.67l-9.262,5.357a1.853,1.853,0,0,0-.641,2.454l1.813,3.125c-1.121.451-1.9,1.1-1.9,2.148v53.953a6.322,6.322,0,0,0,6.277,6.305H1327.7a6.322,6.322,0,0,0,6.277-6.305V4552.09a6.3,6.3,0,0,0-6.277-6.277h-31.1Zm0,3.57h18.97l-7.226,6.026h-18.161c.644-.861,1.252-1.742,1.9-2.567,1.633-2.091,3.2-3.459,4.519-3.459Zm24.995,18.468a1.641,1.641,0,0,1,.2,0,1.786,1.786,0,0,1,1.367,2.957l-9.457,11.242v20.309l10.74,10.657a1.786,1.786,0,1,1-2.511,2.539l-10.879-10.8h-16.71l-10.852,10.769h0a1.786,1.786,0,1,1-2.511-2.539l10.963-10.88v-20.141l-10.071-11.1h0a1.787,1.787,0,0,1,2.65-2.4l10.043,11.076h16.6l9.262-11.048h0a1.784,1.784,0,0,1,1.171-.642Z" transform="translate(-1271.509 -4545.813)" fill="#80c1d3" fill-rule="evenodd"/>
</svg>
