<svg xmlns="http://www.w3.org/2000/svg" width="166.285" height="70.494" viewBox="0 0 166.285 70.494">
  <g id="buy-01" transform="translate(-334.089 -4541.308)">
    <g id="Grupo_618" data-name="Grupo 618">
      <g id="Grupo_617" data-name="Grupo 617">
        <path id="Caminho_1242" data-name="Caminho 1242" d="M374.027,4607.328h-7.143a2.238,2.238,0,0,0-2.238,2.238c0,.039,0,.079,0,.118a2.233,2.233,0,0,0,2.234,2.118h7.143a2.236,2.236,0,0,0,2.235-2.118c0-.039,0-.079,0-.118A2.238,2.238,0,0,0,374.027,4607.328Z" fill="#80c1d3"/>
        <path id="Caminho_1243" data-name="Caminho 1243" d="M400.192,4547.755l-13.1-2.17a99.963,99.963,0,0,0-32.659,0l-13.105,2.171a5.122,5.122,0,0,0-4.3,5.07v18.3a17.138,17.138,0,0,0,17.118,17.12h6.1a6.7,6.7,0,0,1,5.99-9.682h9.054a6.7,6.7,0,0,1,5.991,9.682h6.1a17.138,17.138,0,0,0,17.118-17.12v-18.3A5.124,5.124,0,0,0,400.192,4547.755Z" fill="#80c1d3"/>
        <path id="Caminho_1244" data-name="Caminho 1244" d="M400.671,4544.859l-13.1-2.17a102.961,102.961,0,0,0-33.618,0l-13.105,2.17a8.075,8.075,0,0,0-6.754,7.967v36.521a20.055,20.055,0,0,0,20.054,20.056h9.647c0-.045,0-.092,0-.136a2.581,2.581,0,0,1,2.581-2.581h8.238a2.581,2.581,0,0,1,2.581,2.581c0,.044,0,.091,0,.136h10.19a20.054,20.054,0,0,0,20.053-20.056v-36.521A8.074,8.074,0,0,0,400.671,4544.859Zm-24.394,41.635a1.967,1.967,0,0,1-1.4.58h-3.67v-3.963h3.67a1.981,1.981,0,0,1,1.4,3.383Zm-5.968.58h-3.671a1.982,1.982,0,1,1,0-3.963h3.671Zm3.011,6.615a50.442,50.442,0,0,0,11.894-.8l11.363-2.286c1.967.2,3.5,1.1,3.5,2.078v3.83c0,4.28-6.778,7.9-14.8,7.9H356.242c-8.022,0-14.8-3.615-14.8-7.9v-3.83c0-.974,1.529-1.879,3.5-2.078l11.356,2.284a48.964,48.964,0,0,0,11.7.813C369.7,4593.673,371.514,4593.67,373.32,4593.689Zm32.182-22.563a18.151,18.151,0,0,1-18.13,18.132H379.43l.544-.793a5.681,5.681,0,0,0-4.689-8.889h-9.054a5.68,5.68,0,0,0-4.688,8.889l.544.793h-7.944a18.151,18.151,0,0,1-18.13-18.132v-18.3a6.131,6.131,0,0,1,5.144-6.069l13.106-2.17a100.858,100.858,0,0,1,32.989,0l13.1,2.17a6.132,6.132,0,0,1,5.145,6.069Z" fill="#80c1d3"/>
      </g>
    </g>
    <g id="Grupo_620" data-name="Grupo 620">
      <g id="Grupo_619" data-name="Grupo 619">
        <path id="Caminho_1245" data-name="Caminho 1245" d="M466.976,4607.328h-7.143a2.236,2.236,0,0,0-2.238,2.238c0,.039,0,.079,0,.118a2.235,2.235,0,0,0,2.235,2.118h7.143a2.236,2.236,0,0,0,2.234-2.118c0-.039,0-.079,0-.118A2.239,2.239,0,0,0,466.976,4607.328Z" fill="#80c1d3"/>
        <path id="Caminho_1246" data-name="Caminho 1246" d="M493.14,4547.755l-13.105-2.17a99.963,99.963,0,0,0-32.659,0l-13.105,2.171a5.122,5.122,0,0,0-4.3,5.07v18.3a17.138,17.138,0,0,0,17.118,17.12h6.1a6.7,6.7,0,0,1,5.991-9.682h9.054a6.7,6.7,0,0,1,5.99,9.682h6.1a17.138,17.138,0,0,0,17.118-17.12v-18.3A5.123,5.123,0,0,0,493.14,4547.755Z" fill="#80c1d3"/>
        <path id="Caminho_1247" data-name="Caminho 1247" d="M493.62,4544.859l-13.1-2.17a102.961,102.961,0,0,0-33.618,0l-13.105,2.17a8.075,8.075,0,0,0-6.754,7.967v36.521a20.055,20.055,0,0,0,20.053,20.056h9.647c0-.045,0-.092,0-.136a2.581,2.581,0,0,1,2.581-2.581h8.238a2.582,2.582,0,0,1,2.582,2.581c0,.044,0,.091,0,.136H480.32a20.054,20.054,0,0,0,20.054-20.056v-36.521A8.075,8.075,0,0,0,493.62,4544.859Zm-24.394,41.635a1.971,1.971,0,0,1-1.4.58h-3.67v-3.963h3.67a1.982,1.982,0,0,1,1.4,3.383Zm-5.969.58h-3.67a1.982,1.982,0,1,1,0-3.963h3.67Zm3.012,6.615a50.45,50.45,0,0,0,11.894-.8l11.362-2.286c1.967.2,3.5,1.1,3.5,2.078v3.83c0,4.28-6.777,7.9-14.8,7.9h-29.03c-8.023,0-14.8-3.615-14.8-7.9v-3.83c0-.974,1.529-1.879,3.5-2.078l11.356,2.284a48.973,48.973,0,0,0,11.7.813C462.651,4593.673,464.462,4593.67,466.269,4593.689Zm32.181-22.563a18.151,18.151,0,0,1-18.13,18.132h-7.942l.544-.793a5.681,5.681,0,0,0-4.688-8.889H459.18a5.681,5.681,0,0,0-4.689,8.889l.544.793h-7.944a18.151,18.151,0,0,1-18.13-18.132v-18.3a6.132,6.132,0,0,1,5.145-6.069l13.105-2.17a100.858,100.858,0,0,1,32.989,0l13.106,2.17a6.131,6.131,0,0,1,5.144,6.069Z" fill="#80c1d3"/>
      </g>
    </g>
  </g>
</svg>
