<svg xmlns="http://www.w3.org/2000/svg" width="156.414" height="78.213" viewBox="0 0 156.414 78.213">
  <g id="buy-02" transform="translate(-590.353 -4533.589)">
    <path id="Caminho_1239" data-name="Caminho 1239" d="M641.332,4533.589a1.406,1.406,0,0,0-.968.412l-31.794,31.786,27.8,27.8,31.788-31.8a1.4,1.4,0,0,0,0-1.964l-6.92-6.919h0a1.4,1.4,0,0,0-1.967,0l-.958.958a7.084,7.084,0,0,1-10.018-10.019l.957-.957h0a1.4,1.4,0,0,0,0-1.967L642.33,4534a1.4,1.4,0,0,0-1-.412Zm-5.912,23.086a1.4,1.4,0,0,1,1.021,2.4l-10.9,10.9a1.4,1.4,0,1,1-1.975-1.978l10.9-10.9a1.393,1.393,0,0,1,.956-.422Zm8.631,8.617a1.4,1.4,0,0,1,1.008,2.4l-10.9,10.9a1.4,1.4,0,1,1-1.978-1.975l10.914-10.906a1.4,1.4,0,0,1,.959-.422Zm-37.457,2.474-15.831,15.825a1.394,1.394,0,0,0,0,1.975l6.92,6.92a1.4,1.4,0,0,0,1.978,0l.956-.957a7.078,7.078,0,0,1,10.01,10.01l-.957.956h0a1.4,1.4,0,0,0,0,1.978l6.92,6.919h0a1.4,1.4,0,0,0,1.976,0l15.825-15.831Z" fill="#80c1d3"/>
    <path id="Caminho_1240" data-name="Caminho 1240" d="M719.539,4533.589a1.406,1.406,0,0,0-.968.412l-31.794,31.786,27.8,27.8,31.788-31.8a1.4,1.4,0,0,0,0-1.964l-6.92-6.919h0a1.4,1.4,0,0,0-1.967,0l-.959.958a7.084,7.084,0,0,1-10.017-10.019l.957-.957h0a1.4,1.4,0,0,0,0-1.967L720.537,4534a1.4,1.4,0,0,0-1-.412Zm-5.912,23.086a1.4,1.4,0,0,1,1.021,2.4l-10.905,10.9a1.4,1.4,0,1,1-1.975-1.978l10.9-10.9a1.393,1.393,0,0,1,.956-.422Zm8.631,8.617a1.4,1.4,0,0,1,1.008,2.4l-10.9,10.9a1.4,1.4,0,1,1-1.978-1.975l10.914-10.906a1.4,1.4,0,0,1,.959-.422Zm-37.457,2.474-15.831,15.825a1.394,1.394,0,0,0,0,1.975l6.919,6.92a1.4,1.4,0,0,0,1.979,0l.956-.957a7.078,7.078,0,0,1,10.009,10.01l-.956.956h0a1.4,1.4,0,0,0,0,1.978l6.92,6.919h0a1.4,1.4,0,0,0,1.976,0l15.825-15.831Z" fill="#80c1d3"/>
  </g>
</svg>
