<svg xmlns="http://www.w3.org/2000/svg" width="51.942" height="93.92" viewBox="0 0 51.942 93.92">
  <g id="buy-03" transform="translate(-855.386 -4538.624)">
    <g id="Grupo_598" data-name="Grupo 598">
      <path id="Caminho_1166" data-name="Caminho 1166" d="M876.876,4609.274a5.174,5.174,0,0,0-5.11,4.38h4.28a1.045,1.045,0,0,1,0,2.09h-4.17a5.243,5.243,0,0,0,5,3.86,5.165,5.165,0,1,0,0-10.33Zm10.02-14.3h-19.83c-5.84,6.06-9.7,16.6-9.7,28.49,0,.53-.1,2.4,0,3.24.1,1.56,1.98,3.76,3.44,3.76h2.09v1.04a.982.982,0,0,0,1.04,1.04h4.18a.982.982,0,0,0,1.04-1.04v-1.04h15.66v1.04a.976.976,0,0,0,1.04,1.04h4.17a.984.984,0,0,0,1.05-1.04v-1.04h2.08a3.872,3.872,0,0,0,3.34-3.34c.11-1.26.11-2.4.11-3.66C896.606,4611.984,892.746,4601.244,886.9,4594.974Zm-10.02,26.93a7.41,7.41,0,1,1,7.41-7.41A7.439,7.439,0,0,1,876.876,4621.9Zm0-12.63a5.174,5.174,0,0,0-5.11,4.38h4.28a1.045,1.045,0,0,1,0,2.09h-4.17a5.243,5.243,0,0,0,5,3.86,5.165,5.165,0,1,0,0-10.33Zm0,0a5.174,5.174,0,0,0-5.11,4.38h4.28a1.045,1.045,0,0,1,0,2.09h-4.17a5.243,5.243,0,0,0,5,3.86,5.165,5.165,0,1,0,0-10.33Zm-9.81-19.51v3.13H886.9v-3.13Z" fill="#80c1d3"/>
      <path id="Caminho_1167" data-name="Caminho 1167" d="M906.306,4544.054a5.662,5.662,0,0,0-4.48-2.19h-18.89v-1.57a1.772,1.772,0,0,0-1.88-1.67h-8.77a1.648,1.648,0,0,0-1.67,1.67v1.57h-15.23l5.22,8.03v3.97c0,14.92,2.5,26.61,6.46,33.81H886.9a52.346,52.346,0,0,0,5.22-13.57h.31a12.178,12.178,0,0,0,10.23-8.87l4.49-17.22A4.238,4.238,0,0,0,906.306,4544.054Zm-3.44,3.55-4.07,16.49a8.019,8.019,0,0,1-5.74,5.74,87.463,87.463,0,0,0,1.36-15.97c0-1.78-.21-7.51-.21-7.93h7.3a1.986,1.986,0,0,1,1.15.73A1.07,1.07,0,0,1,902.866,4547.6Z" fill="#80c1d3"/>
    </g>
  </g>
</svg>
