<svg xmlns="http://www.w3.org/2000/svg" width="352" height="79.178" viewBox="0 0 352 79.178">
  <path id="Logo_Frigelar" data-name="Logo Frigelar" d="M-210.856,19.177V3.857h2.215l.165,1.184h.131a3.4,3.4,0,0,1,1.229-.976,3.839,3.839,0,0,1,1.711-.374,4.555,4.555,0,0,1,2.2.537,3.807,3.807,0,0,1,1.6,1.733,7.077,7.077,0,0,1,.6,3.147,7.023,7.023,0,0,1-.658,3.224,4.437,4.437,0,0,1-1.941,1.974,6.8,6.8,0,0,1-3.191.67,5.676,5.676,0,0,1-.746-.033c-.252-.022-.482-.044-.691-.066v4.3Zm3.587-13.093a2.351,2.351,0,0,0-.955.724v5.977c.2.043.428.076.691.109a6,6,0,0,0,.757.044v-.011a3.069,3.069,0,0,0,2.346-.844,3.976,3.976,0,0,0,.79-2.775,5.549,5.549,0,0,0-.319-2.094,1.986,1.986,0,0,0-.877-1.053,2.725,2.725,0,0,0-1.294-.307A2.974,2.974,0,0,0-207.269,6.084Zm-102.811,13h.022Zm-.921-.088a4.34,4.34,0,0,1-.833-.241V17.675a3.855,3.855,0,0,0,.855.263,4.455,4.455,0,0,0,.8.077,1.407,1.407,0,0,0,.79-.176.66.66,0,0,0,.263-.581c0-.516-.351-.768-1.064-.768h-.427V14.859a5.459,5.459,0,0,1-1.623-.506A4.028,4.028,0,0,1-314.06,12.5a7.11,7.11,0,0,1-.626-3.181,6.711,6.711,0,0,1,.67-3.191,4.2,4.2,0,0,1,1.952-1.853,7.181,7.181,0,0,1,3.1-.6,11.316,11.316,0,0,1,1.228.066,8.773,8.773,0,0,1,1.13.2V6.04a8.907,8.907,0,0,0-1.02-.165,7.581,7.581,0,0,0-1-.055,4.55,4.55,0,0,0-1.9.34,2.264,2.264,0,0,0-1.108,1.108,4.743,4.743,0,0,0-.362,2.018,5.251,5.251,0,0,0,.34,2.061,2.244,2.244,0,0,0,1.02,1.129,3.7,3.7,0,0,0,1.688.34,6.129,6.129,0,0,0,1.075-.1c.374-.066.779-.164,1.251-.3v2.106a7.861,7.861,0,0,1-1.3.307,8.6,8.6,0,0,1-1.393.11V15.7a2.141,2.141,0,0,1,1.031.407,1.539,1.539,0,0,1,.56,1.261,1.485,1.485,0,0,1-.592,1.25,2.841,2.841,0,0,1-1.751.461A5.383,5.383,0,0,1-311,18.991ZM-309.312,14.955Zm158.224,0a14.918,14.918,0,0,1-1.744-.11,10.218,10.218,0,0,1-1.589-.339V12.532a10.434,10.434,0,0,0,1.623.362,11.988,11.988,0,0,0,1.678.121,3.161,3.161,0,0,0,1.711-.351,1.128,1.128,0,0,0,.5-.986,1.108,1.108,0,0,0-.285-.812,1.853,1.853,0,0,0-.954-.406l-1.667-.318a3.928,3.928,0,0,1-2.205-1.064,2.937,2.937,0,0,1-.68-2.018,2.943,2.943,0,0,1,1.2-2.435,5.89,5.89,0,0,1,3.652-.932,12.786,12.786,0,0,1,1.48.088,9.031,9.031,0,0,1,1.316.252V6.007a10.133,10.133,0,0,0-1.327-.274,11.693,11.693,0,0,0-1.392-.088,4.8,4.8,0,0,0-1.491.186,1.473,1.473,0,0,0-.757.494,1.2,1.2,0,0,0-.22.68,1.048,1.048,0,0,0,.275.746,1.763,1.763,0,0,0,.943.438l1.656.307A4.146,4.146,0,0,1-147.173,9.5a2.811,2.811,0,0,1,.713,2.073,2.955,2.955,0,0,1-1.206,2.489,5.65,5.65,0,0,1-3.444.91Zm-122.242,0a14.918,14.918,0,0,1-1.744-.11,10.252,10.252,0,0,1-1.59-.339V12.532a10.469,10.469,0,0,0,1.624.362,11.988,11.988,0,0,0,1.678.121,3.161,3.161,0,0,0,1.711-.351,1.128,1.128,0,0,0,.5-.986,1.108,1.108,0,0,0-.284-.812,1.852,1.852,0,0,0-.954-.406l-1.668-.318a3.926,3.926,0,0,1-2.2-1.064,2.937,2.937,0,0,1-.679-2.018,2.943,2.943,0,0,1,1.2-2.435,5.89,5.89,0,0,1,3.652-.932,12.786,12.786,0,0,1,1.48.088,9.03,9.03,0,0,1,1.316.252V6.007a10.133,10.133,0,0,0-1.327-.274,11.693,11.693,0,0,0-1.392-.088,4.8,4.8,0,0,0-1.491.186,1.473,1.473,0,0,0-.757.494,1.2,1.2,0,0,0-.22.68,1.048,1.048,0,0,0,.275.746,1.763,1.763,0,0,0,.943.438l1.656.307A4.146,4.146,0,0,1-269.416,9.5a2.812,2.812,0,0,1,.713,2.073,2.953,2.953,0,0,1-1.207,2.489,5.647,5.647,0,0,1-3.443.91Zm-51.082,0a4.2,4.2,0,0,1-1.9-.406,2.943,2.943,0,0,1-1.293-1.316,5.16,5.16,0,0,1-.472-2.4V3.868h2.621v6.81a2.077,2.077,0,0,0,.482,1.568,1.786,1.786,0,0,0,1.261.439,3.079,3.079,0,0,0,.812-.11,2.826,2.826,0,0,0,.812-.362,2.84,2.84,0,0,0,.69-.614V3.868h2.633v10.9h-2.182l-.176-1.129h-.121a4.35,4.35,0,0,1-1.459.987,4.6,4.6,0,0,1-1.722.339Zm-34.357,0a12.974,12.974,0,0,1-2.039-.165,11.944,11.944,0,0,1-1.92-.46v-2.2a11.14,11.14,0,0,0,1.3.351c.461.1.911.165,1.36.22a10.609,10.609,0,0,0,1.294.076,3.846,3.846,0,0,0,2.314-.537,1.809,1.809,0,0,0,.713-1.524A1.657,1.657,0,0,0-356.27,9.4a4.782,4.782,0,0,0-1.908-.811l-1-.264a5.927,5.927,0,0,1-2.894-1.5,3.72,3.72,0,0,1-.976-2.676,3.863,3.863,0,0,1,1.459-3.2,6.99,6.99,0,0,1,4.375-1.163,16.457,16.457,0,0,1,1.832.11A9.42,9.42,0,0,1-353.8.217v2.2a9.242,9.242,0,0,0-1.579-.34,12.674,12.674,0,0,0-1.7-.11,6.116,6.116,0,0,0-1.931.252,2.126,2.126,0,0,0-1.053.7,1.825,1.825,0,0,0-.328,1.086,1.619,1.619,0,0,0,.472,1.25,4.29,4.29,0,0,0,1.711.789l1,.263a8.218,8.218,0,0,1,2.326.911,3.528,3.528,0,0,1,1.348,1.382,3.982,3.982,0,0,1,.439,1.931,4.133,4.133,0,0,1-.68,2.38,4.368,4.368,0,0,1-1.952,1.524,8.018,8.018,0,0,1-3.07.527Zm192.175-.844a2.9,2.9,0,0,1-.91-2.248,2.9,2.9,0,0,1,1.02-2.347,5.991,5.991,0,0,1,3.3-1.02l2.029-.194v-.42a2.726,2.726,0,0,0-.263-1.305,1.451,1.451,0,0,0-.845-.669,4.647,4.647,0,0,0-1.491-.2,9.88,9.88,0,0,0-1.415.11,9.987,9.987,0,0,0-1.535.34V4.154a10.339,10.339,0,0,1,1.688-.351,13.964,13.964,0,0,1,1.711-.121,7.335,7.335,0,0,1,2.654.406,2.885,2.885,0,0,1,1.557,1.36,5.555,5.555,0,0,1,.5,2.6v6.711h-2.171l-.186-1.13h-.132a2.965,2.965,0,0,1-1.283,1,4.348,4.348,0,0,1-1.689.328A3.638,3.638,0,0,1-166.6,14.111Zm3.674-4.1a2.639,2.639,0,0,0-1.513.5,1.379,1.379,0,0,0-.461,1.1,1.419,1.419,0,0,0,.417,1.085,1.8,1.8,0,0,0,1.239.383,2.94,2.94,0,0,0,1.085-.208,2.633,2.633,0,0,0,1-.7V9.85Zm-12.37,4a3.888,3.888,0,0,1-1.02-2.993V5.941h-1.865V3.857h1.865V3.847l.471-3.893h2.161v3.9h3.06V5.941h-3.06v4.672a2.308,2.308,0,0,0,.472,1.678,2.015,2.015,0,0,0,1.48.472,5.183,5.183,0,0,0,.57-.032,5.255,5.255,0,0,0,.636-.11v2.105c-.285.055-.581.11-.91.154a7.385,7.385,0,0,1-.977.066v.011A4.092,4.092,0,0,1-175.291,14.012Zm-9.256.943h.022Zm-57.794-.614a4.133,4.133,0,0,1-1.765-1.853,7.034,7.034,0,0,1-.626-3.159,7.3,7.3,0,0,1,.614-3.18,4.117,4.117,0,0,1,1.744-1.865,5.688,5.688,0,0,1,2.72-.614,5.687,5.687,0,0,1,2.719.614A4.064,4.064,0,0,1-235.19,6.15a7.223,7.223,0,0,1,.6,3.169,7.008,7.008,0,0,1-.626,3.158,4.14,4.14,0,0,1-1.754,1.865,5.617,5.617,0,0,1-2.687.614A5.618,5.618,0,0,1-242.34,14.342Zm1.382-8.312a2.1,2.1,0,0,0-.833,1.118,6.305,6.305,0,0,0-.285,2.15,6.807,6.807,0,0,0,.285,2.182,2.175,2.175,0,0,0,.833,1.13,2.485,2.485,0,0,0,1.3.328,2.418,2.418,0,0,0,1.293-.328,2.1,2.1,0,0,0,.833-1.119,6.305,6.305,0,0,0,.285-2.15,6.8,6.8,0,0,0-.285-2.182,2.118,2.118,0,0,0-.833-1.13,2.436,2.436,0,0,0-1.293-.329A2.477,2.477,0,0,0-240.958,6.029Zm-13.018,8.5a5.834,5.834,0,0,1-2.314-1.327,5.691,5.691,0,0,1-1.447-2.347,10.716,10.716,0,0,1-.5-3.454,9.159,9.159,0,0,1,.888-4.277A5.639,5.639,0,0,1-254.787.611a9.19,9.19,0,0,1,4.069-.823,13.1,13.1,0,0,1,1.634.1,12.066,12.066,0,0,1,1.546.285V2.4a11.264,11.264,0,0,0-1.47-.284,13.877,13.877,0,0,0-1.525-.088,6.229,6.229,0,0,0-2.72.526,3.429,3.429,0,0,0-1.633,1.7,7.458,7.458,0,0,0-.549,3.1,7.737,7.737,0,0,0,.549,3.158,3.368,3.368,0,0,0,1.612,1.689,6.05,6.05,0,0,0,2.621.5,10.268,10.268,0,0,0,1.535-.121,11.09,11.09,0,0,0,1.568-.373V14.44a10.468,10.468,0,0,1-1.579.363,11.7,11.7,0,0,1-1.766.131l.011.022A10.328,10.328,0,0,1-253.976,14.528Zm-30,.427h.022Zm-17.118-.614a4.135,4.135,0,0,1-1.766-1.853,7.046,7.046,0,0,1-.626-3.159,7.3,7.3,0,0,1,.615-3.18,4.111,4.111,0,0,1,1.743-1.865,5.69,5.69,0,0,1,2.72-.614,5.69,5.69,0,0,1,2.72.614,4.067,4.067,0,0,1,1.743,1.865,7.223,7.223,0,0,1,.6,3.169,7.009,7.009,0,0,1-.625,3.158,4.142,4.142,0,0,1-1.755,1.865,5.617,5.617,0,0,1-2.686.614A5.612,5.612,0,0,1-301.1,14.342Zm1.382-8.324a2.1,2.1,0,0,0-.833,1.119,6.305,6.305,0,0,0-.285,2.15,6.827,6.827,0,0,0,.285,2.182,2.177,2.177,0,0,0,.833,1.13,2.477,2.477,0,0,0,1.305.329,2.413,2.413,0,0,0,1.294-.329,2.105,2.105,0,0,0,.833-1.118A6.328,6.328,0,0,0-296,9.329a6.833,6.833,0,0,0-.285-2.182,2.125,2.125,0,0,0-.833-1.129,2.448,2.448,0,0,0-1.294-.329A2.485,2.485,0,0,0-299.716,6.017Zm-44.623,8.938h0Zm-36.824-.614a4.135,4.135,0,0,1-1.766-1.853,7.047,7.047,0,0,1-.625-3.159,7.3,7.3,0,0,1,.615-3.18A4.111,4.111,0,0,1-381.2,4.285a5.69,5.69,0,0,1,2.72-.614,5.69,5.69,0,0,1,2.72.614,4.067,4.067,0,0,1,1.743,1.865,7.223,7.223,0,0,1,.6,3.169,7.009,7.009,0,0,1-.625,3.158,4.142,4.142,0,0,1-1.755,1.865,5.617,5.617,0,0,1-2.687.614A5.612,5.612,0,0,1-381.164,14.342Zm1.382-8.312a2.1,2.1,0,0,0-.833,1.118A6.305,6.305,0,0,0-380.9,9.3a6.833,6.833,0,0,0,.285,2.182,2.18,2.18,0,0,0,.833,1.13,2.485,2.485,0,0,0,1.3.328,2.421,2.421,0,0,0,1.294-.328,2.108,2.108,0,0,0,.833-1.119,6.328,6.328,0,0,0,.285-2.15,6.827,6.827,0,0,0-.285-2.182,2.118,2.118,0,0,0-.833-1.13,2.44,2.44,0,0,0-1.294-.329A2.477,2.477,0,0,0-379.782,6.029Zm-15.507,8.378a3.835,3.835,0,0,1-1.6-1.744,7.1,7.1,0,0,1-.6-3.136,7.07,7.07,0,0,1,.658-3.225,4.424,4.424,0,0,1,1.952-1.974A6.937,6.937,0,0,1-391.7,3.66a5.923,5.923,0,0,1,.757.032c.252.023.482.044.68.077V-1.407h2.633V14.747h-2.205l-.175-1.163h-.131a3.7,3.7,0,0,1-1.217.976,3.716,3.716,0,0,1-1.722.373v.022A4.566,4.566,0,0,1-395.289,14.407Zm2.95-1.623Zm-1.711-6.241a4,4,0,0,0-.789,2.775,5.647,5.647,0,0,0,.318,2.094,2.06,2.06,0,0,0,.878,1.064,2.634,2.634,0,0,0,1.3.308,2.938,2.938,0,0,0,1.124-.23,2.358,2.358,0,0,0,.954-.724V5.854c-.2-.044-.417-.077-.68-.11a6.056,6.056,0,0,0-.768-.044A3.061,3.061,0,0,0-394.05,6.544Zm-24.476,8.411h.022Zm-14.422-.6a4.031,4.031,0,0,1-1.82-1.853,7.111,7.111,0,0,1-.625-3.181,6.711,6.711,0,0,1,.67-3.191,4.205,4.205,0,0,1,1.951-1.853,7.188,7.188,0,0,1,3.1-.6,11.287,11.287,0,0,1,1.228.066,8.758,8.758,0,0,1,1.13.2V6.04a8.888,8.888,0,0,0-1.021-.165,7.564,7.564,0,0,0-1-.055,4.548,4.548,0,0,0-1.9.34,2.264,2.264,0,0,0-1.108,1.108,4.743,4.743,0,0,0-.362,2.018,5.268,5.268,0,0,0,.339,2.061,2.245,2.245,0,0,0,1.021,1.129,3.7,3.7,0,0,0,1.688.34,6.129,6.129,0,0,0,1.075-.1c.373-.066.779-.164,1.25-.3v2.106a7.84,7.84,0,0,1-1.3.307,8.611,8.611,0,0,1-1.415.11l.022.011A6.424,6.424,0,0,1-432.948,14.352Zm-9.573.6h.022Zm-40.685-.614a4.135,4.135,0,0,1-1.766-1.853,7.047,7.047,0,0,1-.625-3.159,7.3,7.3,0,0,1,.614-3.18,4.117,4.117,0,0,1,1.744-1.865,5.687,5.687,0,0,1,2.719-.614,5.688,5.688,0,0,1,2.72.614,4.064,4.064,0,0,1,1.744,1.865,7.223,7.223,0,0,1,.6,3.169,7.008,7.008,0,0,1-.625,3.158,4.145,4.145,0,0,1-1.754,1.865,5.618,5.618,0,0,1-2.687.614A5.617,5.617,0,0,1-483.206,14.342Zm1.382-8.312a2.106,2.106,0,0,0-.833,1.118,6.331,6.331,0,0,0-.284,2.15,6.837,6.837,0,0,0,.284,2.182,2.185,2.185,0,0,0,.833,1.13,2.489,2.489,0,0,0,1.305.328,2.419,2.419,0,0,0,1.294-.328,2.1,2.1,0,0,0,.833-1.119,6.305,6.305,0,0,0,.285-2.15,6.827,6.827,0,0,0-.285-2.182,2.118,2.118,0,0,0-.833-1.13A2.437,2.437,0,0,0-480.52,5.7,2.481,2.481,0,0,0-481.825,6.029Zm134.8,8.312a4.135,4.135,0,0,1-1.766-1.853,7.047,7.047,0,0,1-.625-3.159,7.3,7.3,0,0,1,.614-3.18,4.117,4.117,0,0,1,1.744-1.865,5.687,5.687,0,0,1,2.719-.614,5.688,5.688,0,0,1,2.72.614,4.064,4.064,0,0,1,1.744,1.865,7.223,7.223,0,0,1,.6,3.169,7.008,7.008,0,0,1-.626,3.158,4.14,4.14,0,0,1-1.754,1.865,5.617,5.617,0,0,1-2.687.614A5.617,5.617,0,0,1-347.026,14.342Zm1.382-8.312a2.105,2.105,0,0,0-.833,1.118,6.33,6.33,0,0,0-.284,2.15,6.836,6.836,0,0,0,.284,2.182,2.185,2.185,0,0,0,.833,1.13,2.49,2.49,0,0,0,1.306.328,2.418,2.418,0,0,0,1.293-.328,2.1,2.1,0,0,0,.833-1.119,6.305,6.305,0,0,0,.285-2.15,6.8,6.8,0,0,0-.285-2.182,2.117,2.117,0,0,0-.833-1.13,2.436,2.436,0,0,0-1.293-.329A2.482,2.482,0,0,0-345.644,6.029Zm157.928,8.345a3.875,3.875,0,0,1-1.886-1.832,7.232,7.232,0,0,1-.625-3.235,7.442,7.442,0,0,1,.57-3.1A4.113,4.113,0,0,1-188,4.318a5.036,5.036,0,0,1,2.61-.636,4.426,4.426,0,0,1,2.479.636,3.9,3.9,0,0,1,1.535,1.908,8.275,8.275,0,0,1,.516,3.158V10.1h-6.748a3.911,3.911,0,0,0,.332,1.535,1.923,1.923,0,0,0,1.085,1.009,5.349,5.349,0,0,0,2.007.307,9.329,9.329,0,0,0,1.316-.1,14.019,14.019,0,0,0,1.415-.285v2.007a11.842,11.842,0,0,1-1.59.3,13.968,13.968,0,0,1-1.494.087A7.7,7.7,0,0,1-187.717,14.374Zm4.4-5.855a6.017,6.017,0,0,0-.239-1.755,1.924,1.924,0,0,0-.713-1.042,2.071,2.071,0,0,0-1.162-.318,2.168,2.168,0,0,0-1.184.307,1.923,1.923,0,0,0-.746,1.042,5.589,5.589,0,0,0-.25,1.766ZM-421.7,14.374a3.875,3.875,0,0,1-1.886-1.832,7.231,7.231,0,0,1-.625-3.235,7.442,7.442,0,0,1,.57-3.1,4.113,4.113,0,0,1,1.656-1.886,5.036,5.036,0,0,1,2.61-.636,4.426,4.426,0,0,1,2.479.636,3.9,3.9,0,0,1,1.535,1.908,8.274,8.274,0,0,1,.516,3.158V10.1h-6.748a3.911,3.911,0,0,0,.332,1.535,1.923,1.923,0,0,0,1.085,1.009,5.349,5.349,0,0,0,2.007.307,9.328,9.328,0,0,0,1.316-.1,14.018,14.018,0,0,0,1.415-.285v2.007a11.842,11.842,0,0,1-1.59.3,13.968,13.968,0,0,1-1.494.087A7.7,7.7,0,0,1-421.7,14.374Zm4.4-5.855a6.019,6.019,0,0,0-.239-1.755,1.924,1.924,0,0,0-.713-1.042,2.071,2.071,0,0,0-1.162-.318,2.168,2.168,0,0,0-1.184.307,1.923,1.923,0,0,0-.746,1.042,5.59,5.59,0,0,0-.25,1.766Zm-28.39,5.855a3.871,3.871,0,0,1-1.886-1.832,7.231,7.231,0,0,1-.625-3.235,7.427,7.427,0,0,1,.571-3.1,4.108,4.108,0,0,1,1.656-1.886,5.033,5.033,0,0,1,2.61-.636,4.43,4.43,0,0,1,2.479.636,3.909,3.909,0,0,1,1.535,1.908,8.293,8.293,0,0,1,.515,3.158V10.1h-6.748a3.911,3.911,0,0,0,.332,1.535,1.928,1.928,0,0,0,1.085,1.009,5.352,5.352,0,0,0,2.007.307,9.319,9.319,0,0,0,1.316-.1,14.018,14.018,0,0,0,1.415-.285v2.007a11.79,11.79,0,0,1-1.59.3,13.954,13.954,0,0,1-1.494.087A7.7,7.7,0,0,1-445.69,14.374Zm4.4-5.855a6.05,6.05,0,0,0-.239-1.755,1.933,1.933,0,0,0-.713-1.042,2.074,2.074,0,0,0-1.163-.318,2.17,2.17,0,0,0-1.184.307,1.926,1.926,0,0,0-.745,1.042,5.591,5.591,0,0,0-.251,1.766Zm154.146,5.855a3.871,3.871,0,0,1-1.886-1.832,7.231,7.231,0,0,1-.625-3.235,7.441,7.441,0,0,1,.571-3.1,4.113,4.113,0,0,1,1.656-1.886,5.033,5.033,0,0,1,2.61-.636,4.43,4.43,0,0,1,2.479.636,3.909,3.909,0,0,1,1.535,1.908,8.275,8.275,0,0,1,.515,3.158V10.1h-6.748a3.912,3.912,0,0,0,.332,1.535,1.928,1.928,0,0,0,1.085,1.009,5.353,5.353,0,0,0,2.007.307,9.319,9.319,0,0,0,1.316-.1,14.022,14.022,0,0,0,1.415-.285v2.007a11.805,11.805,0,0,1-1.589.3,13.971,13.971,0,0,1-1.495.087A7.7,7.7,0,0,1-287.149,14.374Zm4.4-5.855a6.018,6.018,0,0,0-.239-1.755,1.933,1.933,0,0,0-.713-1.042,2.074,2.074,0,0,0-1.163-.318,2.17,2.17,0,0,0-1.184.307,1.926,1.926,0,0,0-.745,1.042,5.59,5.59,0,0,0-.251,1.766Zm-121.342,6.25V7.981a2.08,2.08,0,0,0-.482-1.569,1.855,1.855,0,0,0-1.316-.438,3.193,3.193,0,0,0-.833.11,3.218,3.218,0,0,0-.833.35,2.712,2.712,0,0,0-.7.626v7.709h-2.633l.012-.011V3.857h2.182l.176,1.151h.132a4.162,4.162,0,0,1,1.469-.976,4.7,4.7,0,0,1,1.81-.34,4.181,4.181,0,0,1,1.886.406,2.947,2.947,0,0,1,1.293,1.316,5.179,5.179,0,0,1,.472,2.413v6.942Zm-50.709,0V7.981a2.08,2.08,0,0,0-.482-1.569,1.853,1.853,0,0,0-1.316-.438,3.193,3.193,0,0,0-.833.11,3.218,3.218,0,0,0-.833.35,2.712,2.712,0,0,0-.7.626v7.709H-461.6l.012-.011V3.857h2.182l.176,1.151h.132a4.162,4.162,0,0,1,1.469-.976,4.7,4.7,0,0,1,1.81-.34,4.181,4.181,0,0,1,1.886.406,2.947,2.947,0,0,1,1.293,1.316,5.179,5.179,0,0,1,.472,2.413v6.942Zm257.875-.011V-1.4h2.632V14.758Zm-21.056,0v-6.8a2.125,2.125,0,0,0-.461-1.568,1.632,1.632,0,0,0-1.184-.439,2.948,2.948,0,0,0-.789.121,2.285,2.285,0,0,0-.779.4,2.441,2.441,0,0,0-.453.457q.037.382.037.814v7.019h-2.567v-6.8a2.179,2.179,0,0,0-.438-1.568,1.553,1.553,0,0,0-1.151-.439,3.083,3.083,0,0,0-.757.11,2.4,2.4,0,0,0-.735.362,2.636,2.636,0,0,0-.614.636v7.676h-2.632V3.857h2.183l.175,1.163h.131a4.072,4.072,0,0,1,1.382-1,4.406,4.406,0,0,1,1.711-.34,3.659,3.659,0,0,1,1.7.4,2.66,2.66,0,0,1,1.062,1.067,4.209,4.209,0,0,1,1.46-1.078,4.718,4.718,0,0,1,1.842-.4,3.837,3.837,0,0,1,1.8.406,2.838,2.838,0,0,1,1.239,1.316,5.391,5.391,0,0,1,.45,2.424v6.942Zm-.011,0h.011Zm-117.209,0V-1.4h2.632V14.758Zm-136.159,0h-.011V3.857h2.16L-469,5.283h.131A3.12,3.12,0,0,1-467.579,4.1a3.909,3.909,0,0,1,1.71-.383,3.135,3.135,0,0,1,.461.022,3.678,3.678,0,0,1,.406.055v2.39c-.165-.022-.328-.044-.5-.055s-.351-.011-.527-.011a3.982,3.982,0,0,0-1,.131,3.689,3.689,0,0,0-.954.406,2.456,2.456,0,0,0-.746.68v7.424Zm-26.637,0V-.036h9.9V2.169h-7.238V6.347h6.24v2.2h-6.24v6.207ZM-296.887,1.7a2.639,2.639,0,0,1-.888-.154c-.275-.1-.549-.209-.8-.329s-.472-.2-.7-.284a1.919,1.919,0,0,0-.7-.121,2.256,2.256,0,0,0-.954.2,3.049,3.049,0,0,0-.855.625v-1.7A2.459,2.459,0,0,1-299.925-.8a2.593,2.593,0,0,1,.888.154,7.661,7.661,0,0,1,.8.329c.241.1.482.2.713.284a1.921,1.921,0,0,0,.691.132,2.268,2.268,0,0,0,.965-.2,2.839,2.839,0,0,0,.844-.625v1.7a2.459,2.459,0,0,1-1.864.735Zm-81.865-19.871a23.455,23.455,0,0,1-6.963-16.988A23.993,23.993,0,0,1-377.863-53.3,26.89,26.89,0,0,1-359.8-60h.438a28.217,28.217,0,0,1,16.571,5.243c.7.5,1.359,1.064,2.018,1.633a24.1,24.1,0,0,1,4.605,5.549,1.306,1.306,0,0,1,.131.57,1.3,1.3,0,0,1-1.272,1.294h-10.6a1.283,1.283,0,0,1-.833-.307c-.328-.274-.592-.482-.844-.669a16.083,16.083,0,0,0-9.749-2.994,14.687,14.687,0,0,0-10.473,4.09,13.471,13.471,0,0,0-4.332,10.408,14.062,14.062,0,0,0,14.158,14.256h1.052a13.905,13.905,0,0,0,12.973-8.543c.077-.186.318-.823.351-.888h-11.975a1.269,1.269,0,0,1-1.283-1.272,1.378,1.378,0,0,1,.088-.472l2.292-5.571a1.269,1.269,0,0,1,1.162-.746l16.933-.022h4.935c.011.1.022.186.032.285h.012v.131a.98.98,0,0,1,.022.186v.022l-.011.012a25.2,25.2,0,0,1,.131,2.587,23.425,23.425,0,0,1-6.92,17,25.593,25.593,0,0,1-18.149,7.841h-2.275A25.566,25.566,0,0,1-378.751-18.174Zm-117.856,7.281a1.274,1.274,0,0,1-1.283-1.272l-.022-20.069a12.917,12.917,0,0,1,11.153-12.8v6.777L-467-38.275l-.022.011a1.268,1.268,0,0,1,1.283,1.272,1.284,1.284,0,0,1-.1.494l-2.884,7.029a1.268,1.268,0,0,1-1.173.778l-16.867.023.022,16.493a1.289,1.289,0,0,1-1.273,1.283Zm46.322-.076a1.275,1.275,0,0,1-1.283-1.272l-.055-43.24a3.73,3.73,0,0,1,3.717-3.729l17.656-.022c7.764-.011,12.984,1.218,16.428,3.839,3.388,2.588,5.044,6.679,5.044,12.513,0,7.961-3.147,12.677-9.924,14.827l10.187,15.089-.022-.011a1.262,1.262,0,0,1,.2.68A1.3,1.3,0,0,1-409.611-11h-9.826a1.24,1.24,0,0,1-1.075-.6l-9.771-14.947-2.774.077h-7.381l.022,14.223a1.29,1.29,0,0,1-1.273,1.283Zm9.826-24.258h10.78c6.722-.011,9.332-1.963,9.332-6.952h-.011c0-4.99-2.621-6.931-9.344-6.909h-10.78Zm39.588,24.192a1.275,1.275,0,0,1-1.283-1.273l-.055-40.794a3.61,3.61,0,0,1,2.215-3.334l7.293-3.015a1.259,1.259,0,0,1,.45-.088l.011-.011a1.177,1.177,0,0,1,1.184,1.174L-391-12.329a1.292,1.292,0,0,1-1.273,1.294Zm73.629-3.433-.055-41.157a3.731,3.731,0,0,1,3.718-3.729L-290-59.4a1.274,1.274,0,0,1,1.283,1.272v7.5a1.275,1.275,0,0,1-1.272,1.283l-26.133.033v9.332L-298.367-40a1.274,1.274,0,0,1,1.283,1.272,1.32,1.32,0,0,1-.066.417l-.022.066-2.884,7.03a1.293,1.293,0,0,1-1.184.789L-316.1-30.4v9.223l26.143-.033a1.283,1.283,0,0,1,1.283,1.273v7.5a1.276,1.276,0,0,1-1.272,1.283l-33.591.044A3.7,3.7,0,0,1-327.242-14.468Zm45.576-.417-.055-43.241a1.292,1.292,0,0,1,1.273-1.294h8.6a1.275,1.275,0,0,1,1.283,1.273l.044,36.913,18.983-.022a1.275,1.275,0,0,1,1.283,1.272l-.011-.011a1.238,1.238,0,0,1-.1.493l-2.544,6.207A3.6,3.6,0,0,1-256.18-11.2l-21.758.033A3.731,3.731,0,0,1-281.666-14.884Zm34.018,2.39a1.234,1.234,0,0,1,.11-.515L-229.564-57.3a3.73,3.73,0,0,1,3.378-2.172l4.781-.011h4.782a3.729,3.729,0,0,1,3.389,2.16l18.084,44.25a1.21,1.21,0,0,1,.11.515,1.3,1.3,0,0,1-1.273,1.294h-10.527a1.293,1.293,0,0,1-1.2-.833l-3.619-9.223-19.389.023-3.6,9.234a1.308,1.308,0,0,1-1.2.844h-10.548A1.269,1.269,0,0,1-247.648-12.494Zm19.5-17.557h.35l.012.011,12.863-.022h.351L-221.383-46.9Zm40.2,18.742a1.274,1.274,0,0,1-1.283-1.272l-.055-43.241a3.73,3.73,0,0,1,3.717-3.729l17.656-.022c7.764-.012,12.984,1.217,16.428,3.838,3.389,2.588,5.044,6.679,5.044,12.513.011,7.961-3.136,12.677-9.913,14.827l10.166,15.068-.022-.011a1.26,1.26,0,0,1,.209.7,1.292,1.292,0,0,1-1.273,1.294H-157.1a1.243,1.243,0,0,1-1.076-.6l-9.77-14.947-2.775.076H-178.1l.022,14.224a1.29,1.29,0,0,1-1.273,1.282Zm9.826-24.258h10.78c6.711-.011,9.321-1.963,9.321-6.952s-2.632-6.931-9.344-6.908h-10.779Zm-319.8-1.2v-1.305l-.011-11.021A10.043,10.043,0,0,1-487.9-59.144l31.375-.044A1.18,1.18,0,0,1-455.341-58l-.011-.022a1.258,1.258,0,0,1-.088.449l-2.566,7.26a3.63,3.63,0,0,1-3.356,2.248l-23.665.032A12.918,12.918,0,0,0-497.2-39.372a.576.576,0,0,0-.022.055,12.541,12.541,0,0,0-.592,2.555v.011c-.011.022-.022.044-.055.044A.052.052,0,0,1-497.923-36.762Z" transform="translate(498 60)" fill="#1e3562"/>
</svg>
