<svg xmlns="http://www.w3.org/2000/svg" width="391.176" height="85.876" viewBox="0 0 391.176 85.876">
  <g id="logo-top" transform="translate(-764.412 -104.17)">
    <path id="Caminho_157" data-name="Caminho 157" d="M833.9,185.54q-.539,0-1.165-.043t-1.283-.13q-.657-.086-1.325-.216c-.447-.086-.87-.179-1.272-.28v-1.638a24.75,24.75,0,0,0,2.608.507,17.125,17.125,0,0,0,2.329.183,4.947,4.947,0,0,0,2.857-.69,2.281,2.281,0,0,0,.981-1.984,2.52,2.52,0,0,0-.281-1.24,2.642,2.642,0,0,0-.765-.862,4.637,4.637,0,0,0-1.175-.6q-.69-.247-1.488-.463a14.8,14.8,0,0,1-2.178-.754,5.405,5.405,0,0,1-1.487-.96,3.462,3.462,0,0,1-.863-1.272,4.624,4.624,0,0,1-.28-1.672,4.175,4.175,0,0,1,.388-1.811,3.879,3.879,0,0,1,1.111-1.391,5.26,5.26,0,0,1,1.736-.883,7.75,7.75,0,0,1,2.285-.313,14.315,14.315,0,0,1,1.929.14q1.024.14,2.3.421l-.065,1.616a16.326,16.326,0,0,0-2.091-.42,14.788,14.788,0,0,0-1.919-.14,4.4,4.4,0,0,0-2.684.733,2.368,2.368,0,0,0-.981,2.005,2.655,2.655,0,0,0,.194,1.057,2.137,2.137,0,0,0,.625.808,4.754,4.754,0,0,0,1.12.658,12.985,12.985,0,0,0,1.7.582q1.056.3,1.952.647a5.631,5.631,0,0,1,1.541.873,3.631,3.631,0,0,1,1,1.283,4.341,4.341,0,0,1,.355,1.855,3.877,3.877,0,0,1-1.465,3.265,6.845,6.845,0,0,1-4.248,1.133" fill="#003b6b"/>
    <path id="Caminho_158" data-name="Caminho 158" d="M846.838,185.518a5.085,5.085,0,0,1-4.011-1.552,8,8,0,0,1,0-8.981,5.989,5.989,0,0,1,8.021,0,8.014,8.014,0,0,1,0,8.992,5.1,5.1,0,0,1-4.01,1.541m0-1.552a3.14,3.14,0,0,0,2.641-1.067,7.451,7.451,0,0,0,0-6.835,3.787,3.787,0,0,0-5.272,0,7.365,7.365,0,0,0,0,6.835,3.144,3.144,0,0,0,2.631,1.067" fill="#003b6b"/>
    <rect id="Retângulo_21" data-name="Retângulo 21" width="1.898" height="17.422" transform="translate(854.923 167.88)" fill="#003b6b"/>
    <path id="Caminho_159" data-name="Caminho 159" d="M862.986,185.518q-2.953,0-2.954-3.191v-8.668h1.9v8.064a2.676,2.676,0,0,0,.409,1.671,1.677,1.677,0,0,0,1.38.506,5.7,5.7,0,0,0,2.134-.441q1.1-.442,2.136-.96v-8.84h1.9V185.3h-1.573l-.129-1.423H868.1q-.885.432-1.552.744a11.917,11.917,0,0,1-1.24.506,7.446,7.446,0,0,1-1.121.291,6.768,6.768,0,0,1-1.2.1" fill="#003b6b"/>
    <path id="Caminho_160" data-name="Caminho 160" d="M876.571,190.046a6.308,6.308,0,0,1-.939-.076c-.337-.05-.658-.111-.96-.183v-1.293a4.346,4.346,0,0,0,1.488.237,1.918,1.918,0,0,0,1.186-.292,1.179,1.179,0,0,0,.367-.98,2.593,2.593,0,0,0-.174-.917,6.84,6.84,0,0,0-.581-1.132q-4.421-.56-4.42-5.908,0-6.036,5.541-6.037a13.5,13.5,0,0,1,1.4.076,10.507,10.507,0,0,1,1.358.225v1.6a9.992,9.992,0,0,0-1.293-.216q-.646-.064-1.272-.065a3.625,3.625,0,0,0-2.889,1.068,5,5,0,0,0-.928,3.331,5.113,5.113,0,0,0,.9,3.352,3.589,3.589,0,0,0,2.878,1.046q.711,0,1.3-.054a10.725,10.725,0,0,0,1.3-.205V185.2q-.474.106-1.12.193t-1.316.109a5.929,5.929,0,0,1,.582,1.174,3.07,3.07,0,0,1,.152.96,2.333,2.333,0,0,1-.669,1.789,2.67,2.67,0,0,1-1.9.626" fill="#003b6b"/>
    <path id="Caminho_161" data-name="Caminho 161" d="M887.891,185.518a5.087,5.087,0,0,1-4.012-1.552,8,8,0,0,1,0-8.981,5.989,5.989,0,0,1,8.021,0,8.014,8.014,0,0,1,0,8.992,5.1,5.1,0,0,1-4.009,1.541m-4.422-14.791a4.506,4.506,0,0,1,1.315-1.207,2.8,2.8,0,0,1,1.4-.41,3.294,3.294,0,0,1,.971.14q.451.141.883.324t.862.323a2.749,2.749,0,0,0,2.825-.679l.539.582a4.019,4.019,0,0,1-1.3,1.219,3.022,3.022,0,0,1-1.5.419,3.127,3.127,0,0,1-.927-.139q-.453-.141-.895-.313t-.884-.313a2.948,2.948,0,0,0-.894-.14,2.458,2.458,0,0,0-.927.183,3.229,3.229,0,0,0-.929.615Zm4.422,13.239a3.143,3.143,0,0,0,2.641-1.067,7.458,7.458,0,0,0,0-6.835,3.788,3.788,0,0,0-5.273,0,7.365,7.365,0,0,0,0,6.835,3.146,3.146,0,0,0,2.632,1.067" fill="#003b6b"/>
    <path id="Caminho_162" data-name="Caminho 162" d="M900.719,185.5a5.207,5.207,0,0,1-4.032-1.477,6.275,6.275,0,0,1-1.359-4.387,6.883,6.883,0,0,1,1.348-4.582,4.848,4.848,0,0,1,3.913-1.585q4.464,0,4.464,5.2a5.709,5.709,0,0,1-.152,1.51h-7.675a4.309,4.309,0,0,0,1,2.91,3.738,3.738,0,0,0,2.728.885,10.855,10.855,0,0,0,1.746-.152,11.623,11.623,0,0,0,1.833-.453l.108,1.445a10.665,10.665,0,0,1-1.908.507,11.711,11.711,0,0,1-2.016.183m-.173-10.565q-3.105,0-3.32,3.9h6.08a5.154,5.154,0,0,0-.669-3.007,2.439,2.439,0,0,0-2.091-.9" fill="#003b6b"/>
    <path id="Caminho_163" data-name="Caminho 163" d="M910.939,185.54a13.023,13.023,0,0,1-1.682-.119q-.906-.119-2.264-.377v-1.552q1.077.259,2.037.42a10.962,10.962,0,0,0,1.822.162,3.214,3.214,0,0,0,1.952-.5,1.653,1.653,0,0,0,.658-1.4,1.8,1.8,0,0,0-.173-.831,1.626,1.626,0,0,0-.5-.571,2.634,2.634,0,0,0-.776-.377,9.911,9.911,0,0,0-.992-.248q-.669-.13-1.358-.291a4.025,4.025,0,0,1-1.251-.518,2.765,2.765,0,0,1-.916-.97,3.28,3.28,0,0,1-.356-1.65,2.945,2.945,0,0,1,1.132-2.458,5.019,5.019,0,0,1,3.159-.884c.244,0,.481.008.711.022s.474.04.733.075.547.079.863.13.689.118,1.121.205l-.086,1.574q-1.1-.238-1.833-.357a8.673,8.673,0,0,0-1.359-.118q-2.607,0-2.608,1.768a1.489,1.489,0,0,0,.776,1.4,3.358,3.358,0,0,0,.862.345q.5.129,1.079.237a10.846,10.846,0,0,1,1.433.377,3.779,3.779,0,0,1,1.143.615,2.65,2.65,0,0,1,.755.981,3.521,3.521,0,0,1,.269,1.455,3.079,3.079,0,0,1-1.132,2.533,5,5,0,0,1-3.223.917" fill="#003b6b"/>
    <path id="Caminho_164" data-name="Caminho 164" d="M930.818,183.879a4.21,4.21,0,0,1-1.617,1.229,5.265,5.265,0,0,1-2.114.41q-4.828,0-4.829-5.951a6.324,6.324,0,0,1,1.509-4.55,5.641,5.641,0,0,1,4.269-1.573,22.355,22.355,0,0,1,2.48.14q1.251.141,2.134.313v16.149h-1.832Zm-3.3.13a4.087,4.087,0,0,0,1.283-.194,3.114,3.114,0,0,0,1.024-.55,2.645,2.645,0,0,0,.679-.841,2.362,2.362,0,0,0,.248-1.089v-6.209c-.532-.073-1.021-.126-1.466-.162s-.877-.054-1.294-.054a3.6,3.6,0,0,0-2.9,1.078,5.325,5.325,0,0,0-.916,3.472,5.975,5.975,0,0,0,.787,3.471,2.949,2.949,0,0,0,2.555,1.078" fill="#003b6b"/>
    <path id="Caminho_165" data-name="Caminho 165" d="M938.774,185.518q-2.953,0-2.954-3.191v-8.668h1.9v8.064a2.676,2.676,0,0,0,.409,1.671,1.677,1.677,0,0,0,1.38.506,5.694,5.694,0,0,0,2.134-.441q1.1-.442,2.136-.96v-8.84h1.9V185.3H944.1l-.129-1.423h-.087q-.885.432-1.552.744a11.917,11.917,0,0,1-1.24.506,7.445,7.445,0,0,1-1.121.291,6.769,6.769,0,0,1-1.2.1" fill="#003b6b"/>
    <path id="Caminho_166" data-name="Caminho 166" d="M953.737,185.5a5.208,5.208,0,0,1-4.032-1.477,6.279,6.279,0,0,1-1.358-4.387,6.889,6.889,0,0,1,1.347-4.582,4.849,4.849,0,0,1,3.914-1.585q4.463,0,4.463,5.2a5.759,5.759,0,0,1-.151,1.51h-7.676a4.315,4.315,0,0,0,1,2.91,3.738,3.738,0,0,0,2.728.885,10.866,10.866,0,0,0,1.747-.152,11.585,11.585,0,0,0,1.832-.453l.108,1.445a10.643,10.643,0,0,1-1.908.507,11.693,11.693,0,0,1-2.016.183m-.173-10.565q-3.105,0-3.32,3.9h6.08a5.155,5.155,0,0,0-.668-3.007,2.442,2.442,0,0,0-2.092-.9" fill="#003b6b"/>
    <rect id="Retângulo_22" data-name="Retângulo 22" width="1.918" height="15.955" transform="translate(966.027 169.346)" fill="#003b6b"/>
    <path id="Caminho_167" data-name="Caminho 167" d="M971.5,173.659h1.553l.129,1.358h.108a16.5,16.5,0,0,1,2.35-1.2,5.16,5.16,0,0,1,1.876-.378,2.721,2.721,0,0,1,2.781,1.6h.087a14.073,14.073,0,0,1,2.393-1.229,5.4,5.4,0,0,1,1.876-.367,3.081,3.081,0,0,1,2.274.787,3.269,3.269,0,0,1,.787,2.4V185.3h-1.875v-8.021a2.519,2.519,0,0,0-.464-1.713,1.852,1.852,0,0,0-1.433-.507,4.333,4.333,0,0,0-1.52.323,13.672,13.672,0,0,0-1.844.884V185.3h-1.9v-8.021a2.524,2.524,0,0,0-.464-1.713,1.853,1.853,0,0,0-1.434-.507,4.317,4.317,0,0,0-1.563.345,13.977,13.977,0,0,0-1.844.906v8.99H971.5Z" fill="#003b6b"/>
    <path id="Caminho_168" data-name="Caminho 168" d="M990.908,173.659h1.639l.151,1.38h.129a4.387,4.387,0,0,1,3.643-1.6,4.463,4.463,0,0,1,3.581,1.434,6.78,6.78,0,0,1,1.228,4.475,6.357,6.357,0,0,1-1.52,4.592,5.642,5.642,0,0,1-4.258,1.574q-.756,0-1.445-.065t-1.25-.129v4.722h-1.9Zm4.636,10.414a3.646,3.646,0,0,0,2.857-1.067,5.268,5.268,0,0,0,.959-3.547,5.807,5.807,0,0,0-.8-3.472,3.015,3.015,0,0,0-2.545-1.034,4.075,4.075,0,0,0-1.229.183,3.334,3.334,0,0,0-1.024.518,2.465,2.465,0,0,0-.7.819,2.267,2.267,0,0,0-.258,1.088v6.275q.538.086,1.261.162a14,14,0,0,0,1.477.075" fill="#003b6b"/>
    <path id="Caminho_169" data-name="Caminho 169" d="M1006.82,185.518q-2.955,0-2.954-3.191v-8.668h1.9v8.064a2.669,2.669,0,0,0,.409,1.671,1.677,1.677,0,0,0,1.38.506,5.7,5.7,0,0,0,2.134-.441q1.1-.442,2.136-.96v-8.84h1.9V185.3h-1.573l-.13-1.423h-.086q-.885.432-1.552.744a12,12,0,0,1-1.24.506,7.425,7.425,0,0,1-1.122.291,6.757,6.757,0,0,1-1.2.1" fill="#003b6b"/>
    <rect id="Retângulo_23" data-name="Retângulo 23" width="1.897" height="17.422" transform="translate(1017.041 167.88)" fill="#003b6b"/>
    <path id="Caminho_170" data-name="Caminho 170" d="M1025.513,185.54a13.01,13.01,0,0,1-1.681-.119q-.906-.119-2.264-.377v-1.552q1.077.259,2.037.42a10.963,10.963,0,0,0,1.822.162,3.218,3.218,0,0,0,1.952-.5,1.652,1.652,0,0,0,.657-1.4,1.813,1.813,0,0,0-.172-.831,1.626,1.626,0,0,0-.5-.571,2.635,2.635,0,0,0-.776-.377,9.984,9.984,0,0,0-.992-.248q-.669-.13-1.359-.291a4.046,4.046,0,0,1-1.251-.518,2.763,2.763,0,0,1-.915-.97,3.279,3.279,0,0,1-.357-1.65,2.946,2.946,0,0,1,1.133-2.458,5.018,5.018,0,0,1,3.158-.884c.245,0,.481.008.712.022s.474.04.733.075.546.079.862.13.69.118,1.122.205l-.086,1.574q-1.1-.238-1.834-.357a8.651,8.651,0,0,0-1.358-.118q-2.609,0-2.608,1.768a1.485,1.485,0,0,0,.776,1.4,3.344,3.344,0,0,0,.862.345q.5.129,1.078.237a10.905,10.905,0,0,1,1.434.377,3.79,3.79,0,0,1,1.143.615,2.65,2.65,0,0,1,.755.981,3.537,3.537,0,0,1,.269,1.455,3.079,3.079,0,0,1-1.132,2.533,5.008,5.008,0,0,1-3.224.917" fill="#003b6b"/>
    <path id="Caminho_171" data-name="Caminho 171" d="M1033.34,171.244a1.019,1.019,0,0,1-1.164-1.143,1.03,1.03,0,0,1,1.164-1.165q1.208,0,1.208,1.165,0,1.145-1.208,1.143m-.927,2.416h1.875V185.3h-1.875Z" fill="#003b6b"/>
    <path id="Caminho_172" data-name="Caminho 172" d="M1042.353,185.518a5.087,5.087,0,0,1-4.011-1.552,8,8,0,0,1,0-8.981,5.99,5.99,0,0,1,8.022,0,8.014,8.014,0,0,1,0,8.992,5.1,5.1,0,0,1-4.011,1.541m0-1.552a3.141,3.141,0,0,0,2.642-1.067,7.451,7.451,0,0,0,0-6.835,3.787,3.787,0,0,0-5.272,0,7.364,7.364,0,0,0,0,6.835,3.143,3.143,0,0,0,2.63,1.067" fill="#003b6b"/>
    <path id="Caminho_173" data-name="Caminho 173" d="M1050.394,173.659h1.575l.129,1.358h.108q.861-.408,1.563-.711t1.294-.5a7.583,7.583,0,0,1,1.11-.28,6.208,6.208,0,0,1,1.013-.087,3.084,3.084,0,0,1,2.275.787,3.274,3.274,0,0,1,.787,2.4V185.3h-1.9v-8.043a2.568,2.568,0,0,0-.453-1.713,1.817,1.817,0,0,0-1.424-.507,6.467,6.467,0,0,0-1.907.345,16.354,16.354,0,0,0-2.275.928v8.99h-1.9Z" fill="#003b6b"/>
    <path id="Caminho_174" data-name="Caminho 174" d="M1065.747,185.409a3.149,3.149,0,0,1-2.308-.786,3.06,3.06,0,0,1-.8-2.275,3.162,3.162,0,0,1,1.056-2.566,5.969,5.969,0,0,1,3.386-1.056l2.782-.216v-.841a4.79,4.79,0,0,0-.141-1.261,1.727,1.727,0,0,0-.474-.819,1.9,1.9,0,0,0-.9-.442,6.378,6.378,0,0,0-1.4-.13,15.658,15.658,0,0,0-1.584.087q-.852.085-1.843.28l-.152-1.445q1.143-.214,2.081-.312a18.246,18.246,0,0,1,1.887-.1,5.044,5.044,0,0,1,3.342.926,3.613,3.613,0,0,1,1.078,2.89V185.3h-1.574l-.194-1.466h-.129A10.109,10.109,0,0,1,1067.8,185a5.414,5.414,0,0,1-2.048.409m.689-1.465a4.416,4.416,0,0,0,1.671-.367,10.533,10.533,0,0,0,1.758-.927v-2.932l-2.264.194a4.833,4.833,0,0,0-2.361.657,1.9,1.9,0,0,0-.679,1.628q0,1.746,1.875,1.747" fill="#003b6b"/>
    <path id="Caminho_175" data-name="Caminho 175" d="M1074.931,173.659h1.553l.129,1.358h.108a16.5,16.5,0,0,1,2.35-1.2,5.16,5.16,0,0,1,1.876-.378,2.72,2.72,0,0,1,2.781,1.6h.087a14.078,14.078,0,0,1,2.393-1.229,5.4,5.4,0,0,1,1.876-.367,3.081,3.081,0,0,1,2.274.787,3.269,3.269,0,0,1,.787,2.4V185.3h-1.875v-8.021a2.52,2.52,0,0,0-.464-1.713,1.852,1.852,0,0,0-1.433-.507,4.333,4.333,0,0,0-1.52.323,13.665,13.665,0,0,0-1.844.884V185.3h-1.9v-8.021a2.524,2.524,0,0,0-.464-1.713,1.853,1.853,0,0,0-1.434-.507,4.317,4.317,0,0,0-1.563.345,13.977,13.977,0,0,0-1.844.906v8.99h-1.876Z" fill="#003b6b"/>
    <path id="Caminho_176" data-name="Caminho 176" d="M995.566,104.937H958.244a4.142,4.142,0,0,0-4.137,4.136v45.751a4.116,4.116,0,0,0,4.116,3.737h37.342a1.422,1.422,0,0,0,1.42-1.421V148.8a1.422,1.422,0,0,0-1.42-1.42H966.5V137.138H983.03a1.418,1.418,0,0,0,1.314-.882l3.217-7.809.027-.072a1.419,1.419,0,0,0-1.342-1.88H966.5V116.113h29.063a1.422,1.422,0,0,0,1.42-1.421v-8.334a1.422,1.422,0,0,0-1.42-1.421" fill="#003b6b"/>
    <path id="Caminho_177" data-name="Caminho 177" d="M1039.689,148.8a1.422,1.422,0,0,0-1.42-1.42h-21.1V106.356a1.422,1.422,0,0,0-1.419-1.42H1006.2a1.422,1.422,0,0,0-1.419,1.421v48.067a4.14,4.14,0,0,0,4.135,4.136H1033.1a4.014,4.014,0,0,0,3.639-2.318l2.843-6.891a1.438,1.438,0,0,0,.109-.547" fill="#003b6b"/>
    <path id="Caminho_178" data-name="Caminho 178" d="M863.758,156.389,852.451,139.6c7.536-2.377,11.047-7.612,11.047-16.462,0-6.483-1.829-11.034-5.59-13.914-3.82-2.924-9.619-4.286-18.251-4.286H820.03a4.141,4.141,0,0,0-4.136,4.136v48.068a1.421,1.421,0,0,0,1.42,1.419h9.555a1.422,1.422,0,0,0,1.421-1.419v-15.8H836.5l3.086-.074,10.84,16.626.009.013a1.414,1.414,0,0,0,1.2.657h10.92a1.42,1.42,0,0,0,1.206-2.169ZM850.645,123.9c0,5.548-2.91,7.71-10.378,7.71H828.29v-15.42h11.977c7.468,0,10.378,2.162,10.378,7.71" fill="#003b6b"/>
    <path id="Caminho_179" data-name="Caminho 179" d="M1155.353,156.359l-11.284-16.76c7.535-2.377,11.046-7.612,11.046-16.462,0-6.483-1.828-11.034-5.589-13.914-3.82-2.924-9.619-4.286-18.251-4.286h-19.627a4.14,4.14,0,0,0-4.136,4.136v48.068a1.421,1.421,0,0,0,1.42,1.419h9.555a1.421,1.421,0,0,0,1.42-1.419v-15.8h8.208l3.086-.074,10.84,16.626.009.013a1.411,1.411,0,0,0,1.2.657h10.92a1.421,1.421,0,0,0,1.419-1.419,1.382,1.382,0,0,0-.235-.782m-13.091-32.46c0,5.548-2.91,7.71-10.377,7.71h-11.978v-15.42h11.978c7.467,0,10.377,2.162,10.377,7.71" fill="#003b6b"/>
    <path id="Caminho_180" data-name="Caminho 180" d="M881.9,104.79a1.3,1.3,0,0,0-.5.1l0,0-8.117,3.345,0,0a4.02,4.02,0,0,0-2.465,3.706v45.35a1.422,1.422,0,0,0,1.421,1.42h9.556a1.423,1.423,0,0,0,1.419-1.42V106.1a1.31,1.31,0,0,0-1.31-1.311" fill="#003b6b"/>
    <path id="Caminho_181" data-name="Caminho 181" d="M947.3,128.868c0-.007.006-.014.006-.02-.007-.072-.016-.143-.024-.214l0-.024-.013-.125h0c-.011-.1-.022-.209-.035-.313H922.911a1.415,1.415,0,0,0-1.292.829l-2.554,6.191a1.42,1.42,0,0,0,1.319,1.946H933.7c-.032.1-.3.8-.387,1a15.437,15.437,0,0,1-14.433,9.472l-.408,0c-.229,0-.458,0-.686,0l-.088,0a15.621,15.621,0,0,1-15.712-15.865,14.922,14.922,0,0,1,4.833-11.558,16.358,16.358,0,0,1,11.643-4.534,17.933,17.933,0,0,1,10.834,3.335c.282.209.575.444.938.746a1.416,1.416,0,0,0,.92.338h11.788a1.419,1.419,0,0,0,1.272-2.05,26.775,26.775,0,0,0-5.111-6.171c-.736-.639-1.461-1.259-2.239-1.823a31.21,31.21,0,0,0-18.4-5.857c-.161,0-.324,0-.486,0a29.941,29.941,0,0,0-20.089,7.421,26.643,26.643,0,0,0-8.754,20.154,26.079,26.079,0,0,0,7.721,18.893,28.447,28.447,0,0,0,20.185,8.693c.221,0,.44,0,.659-.008.144,0,.287,0,.43-.007l.159,0,.208,0c.127,0,.255.007.379.007h0c.221.005.443.008.662.008h0a28.444,28.444,0,0,0,20.184-8.692,26.077,26.077,0,0,0,7.721-18.891c0-.969-.051-1.936-.141-2.88" fill="#003b6b"/>
    <path id="Caminho_182" data-name="Caminho 182" d="M1100.931,156.572l0-.009-20.038-49.214a4.15,4.15,0,0,0-3.759-2.412h-10.636a4.152,4.152,0,0,0-3.76,2.412L1042.7,156.563l0,.009a1.4,1.4,0,0,0-.118.569,1.422,1.422,0,0,0,1.42,1.42h11.7a1.423,1.423,0,0,0,1.33-.922l4.009-10.254h21.555l4.01,10.254a1.423,1.423,0,0,0,1.33.922h11.7a1.422,1.422,0,0,0,1.42-1.42,1.4,1.4,0,0,0-.118-.569m-36.27-18.916h-.394l7.546-18.718,7.546,18.718h-14.7Z" fill="#003b6b"/>
    <path id="Caminho_183" data-name="Caminho 183" d="M811.77,106.258a1.32,1.32,0,0,0-1.311-1.319H775.578A11.165,11.165,0,0,0,764.413,116.1v13.719a.058.058,0,0,0,.115.011l0-.011a14.292,14.292,0,0,1,.661-2.837l.02-.059a14.35,14.35,0,0,1,13.546-9.614H805.07a4.049,4.049,0,0,0,3.738-2.494l2.866-8.062v0a1.305,1.305,0,0,0,.1-.5" fill="#003b6b"/>
    <path id="Caminho_184" data-name="Caminho 184" d="M798.778,128.171h-21.97v-7.53a14.337,14.337,0,0,0-12.4,14.2v22.305a1.422,1.422,0,0,0,1.42,1.42h9.555a1.423,1.423,0,0,0,1.421-1.42V138.814h18.755a1.417,1.417,0,0,0,1.307-.866l3.217-7.8a1.422,1.422,0,0,0-1.309-1.973" fill="#003b6b"/>
  </g>
</svg>
