<svg xmlns="http://www.w3.org/2000/svg" width="394.125" height="88.654" viewBox="0 0 394.125 88.654">
  <path id="Logo-Frigelar-Branco" d="M-155.492-5335.347V-5352.5h2.48l.185,1.327h.147a3.784,3.784,0,0,1,1.375-1.093,4.3,4.3,0,0,1,1.915-.418,5.089,5.089,0,0,1,2.468.6,4.254,4.254,0,0,1,1.793,1.94,7.929,7.929,0,0,1,.675,3.524,7.873,7.873,0,0,1-.736,3.61,4.981,4.981,0,0,1-2.173,2.21,7.637,7.637,0,0,1-3.573.749,6.478,6.478,0,0,1-.836-.037c-.282-.024-.54-.049-.773-.073v4.813Zm4.016-14.662a2.65,2.65,0,0,0-1.069.811v6.692c.221.049.479.086.773.123a6.845,6.845,0,0,0,.848.049v-.012a3.431,3.431,0,0,0,2.627-.946,4.447,4.447,0,0,0,.885-3.106,6.234,6.234,0,0,0-.357-2.344,2.223,2.223,0,0,0-.983-1.179,3.031,3.031,0,0,0-1.448-.344A3.34,3.34,0,0,0-151.477-5350.008Zm-115.114,14.55h.025Zm-1.032-.1a4.883,4.883,0,0,1-.932-.27v-1.2a4.341,4.341,0,0,0,.957.294,4.9,4.9,0,0,0,.9.087,1.573,1.573,0,0,0,.883-.2.739.739,0,0,0,.3-.651c0-.577-.393-.859-1.191-.859h-.479v-1.828a6.129,6.129,0,0,1-1.817-.567,4.512,4.512,0,0,1-2.039-2.076,7.97,7.97,0,0,1-.7-3.56,7.512,7.512,0,0,1,.75-3.573,4.706,4.706,0,0,1,2.185-2.076,8.047,8.047,0,0,1,3.475-.675,12.8,12.8,0,0,1,1.375.073,9.6,9.6,0,0,1,1.265.221v2.359a9.716,9.716,0,0,0-1.142-.185,8.553,8.553,0,0,0-1.116-.062,5.084,5.084,0,0,0-2.125.381,2.533,2.533,0,0,0-1.24,1.24,5.32,5.32,0,0,0-.406,2.258,5.894,5.894,0,0,0,.381,2.309,2.509,2.509,0,0,0,1.142,1.265,4.14,4.14,0,0,0,1.891.381,6.894,6.894,0,0,0,1.2-.11c.418-.074.871-.184,1.4-.333v2.358a8.759,8.759,0,0,1-1.461.344,9.606,9.606,0,0,1-1.56.123v.846a2.414,2.414,0,0,1,1.154.456,1.725,1.725,0,0,1,.626,1.412,1.663,1.663,0,0,1-.663,1.4,3.191,3.191,0,0,1-1.964.515A5.933,5.933,0,0,1-267.622-5335.556ZM-265.731-5340.074Zm177.159,0a16.686,16.686,0,0,1-1.953-.123,11.578,11.578,0,0,1-1.779-.381v-2.211a11.644,11.644,0,0,0,1.817.406,13.533,13.533,0,0,0,1.879.135,3.548,3.548,0,0,0,1.915-.392,1.267,1.267,0,0,0,.565-1.105,1.237,1.237,0,0,0-.32-.909,2.071,2.071,0,0,0-1.069-.453l-1.866-.357a4.4,4.4,0,0,1-2.468-1.191,3.286,3.286,0,0,1-.761-2.26,3.3,3.3,0,0,1,1.338-2.725,6.6,6.6,0,0,1,4.089-1.044,14.416,14.416,0,0,1,1.658.1,10.033,10.033,0,0,1,1.473.283v2.209a11.336,11.336,0,0,0-1.485-.306,13.111,13.111,0,0,0-1.56-.1,5.39,5.39,0,0,0-1.67.208,1.643,1.643,0,0,0-.847.552,1.34,1.34,0,0,0-.245.761,1.169,1.169,0,0,0,.306.834,1.963,1.963,0,0,0,1.056.491l1.854.344a4.632,4.632,0,0,1,2.456,1.13,3.147,3.147,0,0,1,.8,2.32,3.3,3.3,0,0,1-1.35,2.788,6.322,6.322,0,0,1-3.855,1.02Zm-136.872,0a16.644,16.644,0,0,1-1.952-.123,11.6,11.6,0,0,1-1.781-.381v-2.211a11.644,11.644,0,0,0,1.817.406,13.533,13.533,0,0,0,1.879.135,3.548,3.548,0,0,0,1.915-.392,1.267,1.267,0,0,0,.565-1.105,1.237,1.237,0,0,0-.32-.909,2.071,2.071,0,0,0-1.067-.453l-1.868-.357a4.4,4.4,0,0,1-2.468-1.191,3.292,3.292,0,0,1-.761-2.26,3.3,3.3,0,0,1,1.338-2.725,6.6,6.6,0,0,1,4.089-1.044,14.415,14.415,0,0,1,1.658.1,10.033,10.033,0,0,1,1.473.283v2.209a11.336,11.336,0,0,0-1.485-.306,13.11,13.11,0,0,0-1.56-.1,5.39,5.39,0,0,0-1.67.208,1.643,1.643,0,0,0-.847.552,1.339,1.339,0,0,0-.245.761,1.169,1.169,0,0,0,.306.834,1.963,1.963,0,0,0,1.056.491l1.854.344a4.632,4.632,0,0,1,2.456,1.13,3.147,3.147,0,0,1,.8,2.32,3.3,3.3,0,0,1-1.35,2.788,6.322,6.322,0,0,1-3.855,1.02Zm-57.2,0a4.69,4.69,0,0,1-2.124-.455,3.3,3.3,0,0,1-1.45-1.473,5.8,5.8,0,0,1-.527-2.69v-7.8h2.934v7.625a2.331,2.331,0,0,0,.54,1.756,2,2,0,0,0,1.413.491,3.392,3.392,0,0,0,.908-.124,3.189,3.189,0,0,0,.909-.4,3.187,3.187,0,0,0,.773-.687v-8.656h2.947v12.205h-2.443l-.2-1.266h-.135a4.861,4.861,0,0,1-1.632,1.105,5.14,5.14,0,0,1-1.929.381Zm-38.469,0a14.583,14.583,0,0,1-2.284-.184,13.649,13.649,0,0,1-2.149-.516v-2.468a12.768,12.768,0,0,0,1.462.392c.516.11,1.02.185,1.522.246a11.873,11.873,0,0,0,1.45.086,4.311,4.311,0,0,0,2.59-.6,2.028,2.028,0,0,0,.8-1.707,1.853,1.853,0,0,0-.589-1.474,5.361,5.361,0,0,0-2.136-.908l-1.118-.294a6.644,6.644,0,0,1-3.241-1.683,4.158,4.158,0,0,1-1.093-3,4.325,4.325,0,0,1,1.634-3.585,7.829,7.829,0,0,1,4.9-1.3,18.381,18.381,0,0,1,2.05.123,10.486,10.486,0,0,1,1.768.369v2.468a10.336,10.336,0,0,0-1.768-.381,14.15,14.15,0,0,0-1.9-.123,6.844,6.844,0,0,0-2.162.282,2.373,2.373,0,0,0-1.179.787,2.036,2.036,0,0,0-.368,1.215,1.813,1.813,0,0,0,.528,1.4,4.8,4.8,0,0,0,1.915.885l1.118.294a9.227,9.227,0,0,1,2.6,1.019,3.952,3.952,0,0,1,1.51,1.547,4.453,4.453,0,0,1,.491,2.162,4.627,4.627,0,0,1-.761,2.664,4.906,4.906,0,0,1-2.186,1.707,8.965,8.965,0,0,1-3.437.589Zm215.173-.946a3.242,3.242,0,0,1-1.02-2.517,3.241,3.241,0,0,1,1.142-2.627,6.708,6.708,0,0,1,3.7-1.142l2.272-.218v-.469a3.065,3.065,0,0,0-.294-1.462,1.633,1.633,0,0,0-.946-.749,5.251,5.251,0,0,0-1.67-.22,11.078,11.078,0,0,0-1.583.122,11.155,11.155,0,0,0-1.719.381v-2.248a11.67,11.67,0,0,1,1.891-.393,15.574,15.574,0,0,1,1.915-.135,8.2,8.2,0,0,1,2.972.455,3.231,3.231,0,0,1,1.744,1.522,6.216,6.216,0,0,1,.565,2.91v7.514H-99.4l-.208-1.265h-.148a3.309,3.309,0,0,1-1.436,1.118,4.843,4.843,0,0,1-1.891.369A4.071,4.071,0,0,1-105.935-5341.02Zm4.114-4.592a2.953,2.953,0,0,0-1.695.565,1.539,1.539,0,0,0-.516,1.228,1.586,1.586,0,0,0,.467,1.214,2.014,2.014,0,0,0,1.387.43,3.289,3.289,0,0,0,1.216-.233,2.949,2.949,0,0,0,1.118-.786v-2.6Zm-13.851,4.481a4.359,4.359,0,0,1-1.142-3.353v-5.685H-118.9v-2.333h2.087v-.012l.528-4.359h2.419v4.371h3.426v2.333h-3.426v5.231a2.582,2.582,0,0,0,.528,1.878,2.262,2.262,0,0,0,1.658.528,5.452,5.452,0,0,0,.638-.038,5.593,5.593,0,0,0,.712-.123v2.358c-.32.061-.651.124-1.02.171a8.1,8.1,0,0,1-1.093.075v.012A4.586,4.586,0,0,1-115.672-5341.13Zm-10.363,1.056h.024Zm-64.709-.687a4.635,4.635,0,0,1-1.977-2.076,7.876,7.876,0,0,1-.7-3.535,8.17,8.17,0,0,1,.687-3.561,4.616,4.616,0,0,1,1.952-2.088,6.385,6.385,0,0,1,3.045-.687,6.385,6.385,0,0,1,3.045.687,4.548,4.548,0,0,1,1.952,2.088,8.085,8.085,0,0,1,.675,3.549,7.84,7.84,0,0,1-.7,3.535,4.64,4.64,0,0,1-1.964,2.088,6.3,6.3,0,0,1-3.008.688A6.3,6.3,0,0,1-190.744-5340.762Zm1.548-9.308a2.355,2.355,0,0,0-.934,1.252,7.1,7.1,0,0,0-.319,2.407,7.673,7.673,0,0,0,.319,2.445,2.438,2.438,0,0,0,.934,1.265,2.777,2.777,0,0,0,1.461.367,2.7,2.7,0,0,0,1.448-.367,2.355,2.355,0,0,0,.934-1.252,7.094,7.094,0,0,0,.319-2.407,7.657,7.657,0,0,0-.319-2.443,2.379,2.379,0,0,0-.934-1.266,2.732,2.732,0,0,0-1.448-.368A2.777,2.777,0,0,0-189.2-5350.07Zm-14.575,9.517a6.531,6.531,0,0,1-2.592-1.485,6.37,6.37,0,0,1-1.62-2.628,12,12,0,0,1-.565-3.867,10.259,10.259,0,0,1,.994-4.789,6.305,6.305,0,0,1,2.874-2.812,10.283,10.283,0,0,1,4.556-.92,14.638,14.638,0,0,1,1.83.11,13.378,13.378,0,0,1,1.73.318v2.493a12.568,12.568,0,0,0-1.644-.319,15.643,15.643,0,0,0-1.707-.1,6.965,6.965,0,0,0-3.045.589,3.835,3.835,0,0,0-1.829,1.9,8.341,8.341,0,0,0-.614,3.474,8.664,8.664,0,0,0,.614,3.538,3.77,3.77,0,0,0,1.805,1.89,6.759,6.759,0,0,0,2.935.565,11.524,11.524,0,0,0,1.719-.135,12.39,12.39,0,0,0,1.755-.418v2.494a11.71,11.71,0,0,1-1.767.4,13.063,13.063,0,0,1-1.978.148l.012.024A11.588,11.588,0,0,1-203.772-5340.553Zm-33.6.479h.025Zm-19.168-.687a4.635,4.635,0,0,1-1.977-2.076,7.878,7.878,0,0,1-.7-3.537,8.179,8.179,0,0,1,.687-3.561,4.619,4.619,0,0,1,1.952-2.087,6.371,6.371,0,0,1,3.045-.687,6.368,6.368,0,0,1,3.045.687,4.555,4.555,0,0,1,1.953,2.087,8.113,8.113,0,0,1,.675,3.549,7.861,7.861,0,0,1-.7,3.537,4.636,4.636,0,0,1-1.966,2.088,6.3,6.3,0,0,1-3.008.688A6.3,6.3,0,0,1-256.535-5340.762Zm1.548-9.32a2.356,2.356,0,0,0-.934,1.252,7.088,7.088,0,0,0-.319,2.407,7.657,7.657,0,0,0,.319,2.443,2.439,2.439,0,0,0,.934,1.265,2.771,2.771,0,0,0,1.461.369,2.7,2.7,0,0,0,1.45-.369,2.355,2.355,0,0,0,.932-1.252,7.05,7.05,0,0,0,.32-2.407,7.62,7.62,0,0,0-.32-2.443,2.38,2.38,0,0,0-.932-1.265,2.74,2.74,0,0,0-1.45-.368A2.78,2.78,0,0,0-254.987-5350.082Zm-52.97,9.32a4.63,4.63,0,0,1-1.978-2.076,7.876,7.876,0,0,1-.7-3.535,8.17,8.17,0,0,1,.687-3.561,4.616,4.616,0,0,1,1.952-2.088,6.392,6.392,0,0,1,3.045-.687,6.385,6.385,0,0,1,3.045.687,4.551,4.551,0,0,1,1.953,2.088,8.1,8.1,0,0,1,.675,3.549,7.858,7.858,0,0,1-.7,3.535,4.636,4.636,0,0,1-1.966,2.088,6.3,6.3,0,0,1-3.008.688A6.3,6.3,0,0,1-307.957-5340.762Zm1.546-9.308a2.354,2.354,0,0,0-.932,1.252,7.061,7.061,0,0,0-.32,2.407,7.63,7.63,0,0,0,.32,2.445,2.436,2.436,0,0,0,.932,1.265,2.783,2.783,0,0,0,1.461.367,2.71,2.71,0,0,0,1.45-.367,2.354,2.354,0,0,0,.932-1.252,7.055,7.055,0,0,0,.32-2.407,7.613,7.613,0,0,0-.32-2.443,2.377,2.377,0,0,0-.932-1.266,2.74,2.74,0,0,0-1.45-.368A2.783,2.783,0,0,0-306.411-5350.07Zm-39.771,9.308a4.635,4.635,0,0,1-1.977-2.076,7.876,7.876,0,0,1-.7-3.535,8.17,8.17,0,0,1,.687-3.561,4.616,4.616,0,0,1,1.952-2.088,6.388,6.388,0,0,1,3.045-.687,6.385,6.385,0,0,1,3.045.687,4.551,4.551,0,0,1,1.953,2.088,8.1,8.1,0,0,1,.675,3.549,7.858,7.858,0,0,1-.7,3.535,4.636,4.636,0,0,1-1.966,2.088,6.3,6.3,0,0,1-3.008.688A6.3,6.3,0,0,1-346.182-5340.762Zm1.548-9.308a2.362,2.362,0,0,0-.934,1.252,7.1,7.1,0,0,0-.319,2.407,7.673,7.673,0,0,0,.319,2.445,2.445,2.445,0,0,0,.934,1.265,2.78,2.78,0,0,0,1.461.367,2.71,2.71,0,0,0,1.45-.367,2.361,2.361,0,0,0,.932-1.252,7.056,7.056,0,0,0,.32-2.407,7.614,7.614,0,0,0-.32-2.443,2.384,2.384,0,0,0-.932-1.266,2.74,2.74,0,0,0-1.45-.368A2.78,2.78,0,0,0-344.634-5350.07ZM-362-5340.688a4.3,4.3,0,0,1-1.793-1.952,7.964,7.964,0,0,1-.675-3.512,7.926,7.926,0,0,1,.736-3.61,4.942,4.942,0,0,1,2.186-2.21,7.773,7.773,0,0,1,3.561-.749,6.465,6.465,0,0,1,.847.037c.283.024.54.049.762.085v-5.794h2.946v18.085h-2.468l-.2-1.3h-.147a4.17,4.17,0,0,1-1.363,1.092,4.16,4.16,0,0,1-1.929.418v.024A5.122,5.122,0,0,1-362-5340.688Zm3.3-1.817Zm-1.915-6.987a4.473,4.473,0,0,0-.885,3.106,6.29,6.29,0,0,0,.357,2.345,2.307,2.307,0,0,0,.981,1.191,2.947,2.947,0,0,0,1.456.344,3.292,3.292,0,0,0,1.258-.257,2.66,2.66,0,0,0,1.069-.811v-6.692c-.222-.049-.467-.086-.762-.123a6.887,6.887,0,0,0-.859-.049A3.425,3.425,0,0,0-360.609-5349.493Zm-27.407,9.418h.025Zm-16.146-.675a4.512,4.512,0,0,1-2.039-2.076,7.97,7.97,0,0,1-.7-3.56,7.528,7.528,0,0,1,.749-3.573,4.709,4.709,0,0,1,2.186-2.076,8.043,8.043,0,0,1,3.475-.675,12.816,12.816,0,0,1,1.375.073,9.641,9.641,0,0,1,1.265.221v2.359a9.763,9.763,0,0,0-1.142-.185,8.561,8.561,0,0,0-1.118-.062,5.081,5.081,0,0,0-2.124.381,2.533,2.533,0,0,0-1.24,1.24,5.3,5.3,0,0,0-.406,2.258,5.869,5.869,0,0,0,.381,2.309,2.509,2.509,0,0,0,1.142,1.265,4.136,4.136,0,0,0,1.891.381,6.906,6.906,0,0,0,1.2-.11c.417-.074.871-.184,1.4-.333v2.358a8.759,8.759,0,0,1-1.461.344,9.63,9.63,0,0,1-1.585.123l.025.012A7.2,7.2,0,0,1-404.162-5340.75Zm-10.72.675h.025Zm-45.554-.687a4.63,4.63,0,0,1-1.978-2.076,7.894,7.894,0,0,1-.7-3.535,8.19,8.19,0,0,1,.687-3.561,4.611,4.611,0,0,1,1.953-2.088,6.385,6.385,0,0,1,3.045-.687,6.388,6.388,0,0,1,3.045.687,4.556,4.556,0,0,1,1.952,2.088,8.085,8.085,0,0,1,.675,3.549,7.84,7.84,0,0,1-.7,3.535,4.64,4.64,0,0,1-1.964,2.088,6.3,6.3,0,0,1-3.008.688A6.3,6.3,0,0,1-460.436-5340.762Zm1.546-9.308a2.36,2.36,0,0,0-.932,1.252,7.061,7.061,0,0,0-.32,2.407,7.63,7.63,0,0,0,.32,2.445,2.443,2.443,0,0,0,.932,1.265,2.785,2.785,0,0,0,1.462.367,2.705,2.705,0,0,0,1.448-.367,2.362,2.362,0,0,0,.934-1.252,7.094,7.094,0,0,0,.319-2.407,7.657,7.657,0,0,0-.319-2.443,2.386,2.386,0,0,0-.934-1.266,2.735,2.735,0,0,0-1.448-.368A2.785,2.785,0,0,0-458.889-5350.07Zm329.305,9.345a4.331,4.331,0,0,1-2.111-2.052,8.087,8.087,0,0,1-.7-3.622,8.345,8.345,0,0,1,.638-3.475,4.608,4.608,0,0,1,1.854-2.111,5.63,5.63,0,0,1,2.923-.712,4.952,4.952,0,0,1,2.776.712,4.379,4.379,0,0,1,1.719,2.136,9.292,9.292,0,0,1,.577,3.538v.8h-7.556a4.375,4.375,0,0,0,.372,1.719,2.156,2.156,0,0,0,1.216,1.128,5.976,5.976,0,0,0,2.247.345,10.5,10.5,0,0,0,1.473-.11,15.576,15.576,0,0,0,1.584-.32v2.247a13.011,13.011,0,0,1-1.781.331,15.443,15.443,0,0,1-1.674.1A8.648,8.648,0,0,1-129.584-5340.725Zm4.921-6.557a6.755,6.755,0,0,0-.267-1.964,2.157,2.157,0,0,0-.8-1.167,2.305,2.305,0,0,0-1.3-.357,2.416,2.416,0,0,0-1.326.345,2.145,2.145,0,0,0-.834,1.167,6.226,6.226,0,0,0-.281,1.977Zm-116.254,6.557a4.342,4.342,0,0,1-2.111-2.052,8.088,8.088,0,0,1-.7-3.622,8.324,8.324,0,0,1,.638-3.475,4.593,4.593,0,0,1,1.854-2.111,5.625,5.625,0,0,1,2.921-.712,4.952,4.952,0,0,1,2.776.712,4.379,4.379,0,0,1,1.719,2.136,9.265,9.265,0,0,1,.577,3.538v.8H-240.8a4.4,4.4,0,0,0,.372,1.719,2.156,2.156,0,0,0,1.216,1.128,5.976,5.976,0,0,0,2.247.345,10.487,10.487,0,0,0,1.473-.11,15.576,15.576,0,0,0,1.584-.32v2.247a13.011,13.011,0,0,1-1.781.331,15.444,15.444,0,0,1-1.674.1A8.648,8.648,0,0,1-240.916-5340.725Zm4.921-6.557a6.754,6.754,0,0,0-.267-1.964,2.155,2.155,0,0,0-.8-1.167,2.313,2.313,0,0,0-1.3-.357,2.419,2.419,0,0,0-1.326.345,2.151,2.151,0,0,0-.834,1.167,6.268,6.268,0,0,0-.281,1.977Zm-155.57,6.557a4.343,4.343,0,0,1-2.111-2.052,8.088,8.088,0,0,1-.7-3.622,8.324,8.324,0,0,1,.638-3.475,4.608,4.608,0,0,1,1.854-2.111,5.627,5.627,0,0,1,2.923-.712,4.947,4.947,0,0,1,2.774.712,4.365,4.365,0,0,1,1.719,2.136,9.265,9.265,0,0,1,.577,3.538v.8h-7.554a4.4,4.4,0,0,0,.371,1.719,2.16,2.16,0,0,0,1.216,1.128,5.976,5.976,0,0,0,2.247.345,10.472,10.472,0,0,0,1.473-.11,15.578,15.578,0,0,0,1.585-.32v2.247a13.011,13.011,0,0,1-1.781.331,15.444,15.444,0,0,1-1.674.1A8.648,8.648,0,0,1-391.565-5340.725Zm4.923-6.557a6.756,6.756,0,0,0-.269-1.964,2.155,2.155,0,0,0-.8-1.167,2.308,2.308,0,0,0-1.3-.357,2.421,2.421,0,0,0-1.327.345,2.151,2.151,0,0,0-.834,1.167,6.267,6.267,0,0,0-.28,1.977Zm-31.788,6.557a4.337,4.337,0,0,1-2.111-2.052,8.087,8.087,0,0,1-.7-3.622,8.345,8.345,0,0,1,.638-3.475,4.6,4.6,0,0,1,1.855-2.111,5.622,5.622,0,0,1,2.921-.712,4.952,4.952,0,0,1,2.776.712,4.379,4.379,0,0,1,1.719,2.136,9.292,9.292,0,0,1,.577,3.538v.8h-7.556a4.375,4.375,0,0,0,.372,1.719,2.156,2.156,0,0,0,1.216,1.128,5.977,5.977,0,0,0,2.247.345,10.5,10.5,0,0,0,1.473-.11,15.576,15.576,0,0,0,1.584-.32v2.247a13.01,13.01,0,0,1-1.781.331,15.443,15.443,0,0,1-1.673.1A8.648,8.648,0,0,1-418.43-5340.725Zm4.922-6.557a6.755,6.755,0,0,0-.267-1.964,2.157,2.157,0,0,0-.8-1.167,2.305,2.305,0,0,0-1.3-.357,2.416,2.416,0,0,0-1.326.345,2.151,2.151,0,0,0-.834,1.167,6.227,6.227,0,0,0-.281,1.977Zm41.652,7v-7.6a2.324,2.324,0,0,0-.54-1.756,2.071,2.071,0,0,0-1.473-.491,3.618,3.618,0,0,0-.934.123,3.653,3.653,0,0,0-.932.393,3.056,3.056,0,0,0-.787.7v8.632h-2.947l.012-.012V-5352.5h2.443l.2,1.289h.147a4.668,4.668,0,0,1,1.646-1.092,5.256,5.256,0,0,1,2.026-.381,4.679,4.679,0,0,1,2.113.455,3.3,3.3,0,0,1,1.448,1.473,5.8,5.8,0,0,1,.528,2.7v7.771Zm-56.778,0v-7.6a2.324,2.324,0,0,0-.54-1.756,2.071,2.071,0,0,0-1.473-.491,3.617,3.617,0,0,0-.934.123,3.653,3.653,0,0,0-.932.393,3.029,3.029,0,0,0-.785.7v8.632h-2.947l.012-.012V-5352.5h2.443l.2,1.289h.147a4.668,4.668,0,0,1,1.646-1.092,5.256,5.256,0,0,1,2.026-.381,4.675,4.675,0,0,1,2.113.455,3.291,3.291,0,0,1,1.448,1.473,5.8,5.8,0,0,1,.528,2.7v7.771Zm288.736-.012v-18.087h2.947v18.087Zm-23.575,0v-7.612a2.38,2.38,0,0,0-.516-1.756,1.823,1.823,0,0,0-1.326-.491,3.253,3.253,0,0,0-.883.136,2.554,2.554,0,0,0-.873.441,2.766,2.766,0,0,0-.508.513q.041.428.041.911v7.858h-2.872v-7.612a2.446,2.446,0,0,0-.491-1.756,1.738,1.738,0,0,0-1.289-.491,3.4,3.4,0,0,0-.848.124,2.714,2.714,0,0,0-.822.4,2.929,2.929,0,0,0-.687.712v8.6H-177.5V-5352.5h2.443l.2,1.3h.148a4.556,4.556,0,0,1,1.546-1.118,4.927,4.927,0,0,1,1.915-.381,4.091,4.091,0,0,1,1.9.442,2.975,2.975,0,0,1,1.19,1.194,4.7,4.7,0,0,1,1.635-1.207,5.275,5.275,0,0,1,2.062-.442,4.3,4.3,0,0,1,2.015.455,3.177,3.177,0,0,1,1.387,1.473,6.042,6.042,0,0,1,.5,2.714v7.771Zm-.012,0h.012Zm-131.236,0v-18.087h2.947v18.087Zm-152.453,0h-.012V-5352.5h2.419l.233,1.6h.147a3.492,3.492,0,0,1,1.45-1.326,4.368,4.368,0,0,1,1.915-.43,3.491,3.491,0,0,1,.516.024,3.972,3.972,0,0,1,.453.062v2.677c-.184-.024-.368-.05-.565-.062s-.392-.012-.588-.012a4.437,4.437,0,0,0-1.118.148,4.119,4.119,0,0,0-1.069.453,2.745,2.745,0,0,0-.834.762v8.312Zm-29.826,0v-16.564h11.089v2.468h-8.1v4.679h6.987v2.468h-6.987v6.949Zm225.181-14.624a2.969,2.969,0,0,1-.994-.171,9.437,9.437,0,0,1-.9-.369c-.27-.123-.528-.22-.785-.318a2.166,2.166,0,0,0-.785-.135,2.522,2.522,0,0,0-1.069.221,3.393,3.393,0,0,0-.958.7v-1.9a2.756,2.756,0,0,1,2.088-.822,2.916,2.916,0,0,1,.994.172,8.178,8.178,0,0,1,.9.369c.27.11.54.221.8.318a2.16,2.16,0,0,0,.773.147,2.539,2.539,0,0,0,1.081-.221,3.2,3.2,0,0,0,.946-.7v1.9a2.756,2.756,0,0,1-2.088.822Zm-91.661-22.248a26.262,26.262,0,0,1-7.8-19.021,26.858,26.858,0,0,1,8.792-20.309,30.1,30.1,0,0,1,20.223-7.5h.491a31.581,31.581,0,0,1,18.552,5.87c.787.564,1.523,1.191,2.26,1.829a27.022,27.022,0,0,1,5.158,6.213,1.478,1.478,0,0,1,.147.639,1.456,1.456,0,0,1-1.425,1.45h-11.873a1.439,1.439,0,0,1-.934-.345c-.368-.306-.663-.541-.945-.749a18.015,18.015,0,0,0-10.916-3.353,16.446,16.446,0,0,0-11.727,4.581,15.082,15.082,0,0,0-4.85,11.652,15.746,15.746,0,0,0,15.853,15.963h1.177a15.571,15.571,0,0,0,14.526-9.565c.087-.209.357-.921.393-1h-13.408a1.42,1.42,0,0,1-1.436-1.424,1.549,1.549,0,0,1,.1-.528l2.566-6.238a1.422,1.422,0,0,1,1.3-.834l18.958-.024h5.527c.012.11.024.208.037.32h.012v.147a1.076,1.076,0,0,1,.025.208v.024l-.012.012a28.154,28.154,0,0,1,.147,2.9,26.227,26.227,0,0,1-7.748,19.032,28.654,28.654,0,0,1-20.321,8.78h-2.549A28.617,28.617,0,0,1-343.48-5377.168Zm-131.96,8.152a1.428,1.428,0,0,1-1.436-1.424l-.025-22.471a14.462,14.462,0,0,1,12.487-14.329v7.587l22.127-.024-.024.012a1.42,1.42,0,0,1,1.436,1.425,1.441,1.441,0,0,1-.11.553l-3.229,7.871a1.424,1.424,0,0,1-1.315.871l-18.885.025.025,18.468a1.443,1.443,0,0,1-1.424,1.436Zm51.866-.085a1.428,1.428,0,0,1-1.437-1.425l-.061-48.414a4.177,4.177,0,0,1,4.163-4.175l19.769-.024c8.693-.012,14.538,1.363,18.393,4.3,3.794,2.9,5.648,7.478,5.648,14.01,0,8.915-3.523,14.195-11.112,16.6l11.407,16.9-.025-.012a1.413,1.413,0,0,1,.221.762,1.454,1.454,0,0,1-1.424,1.448h-11a1.39,1.39,0,0,1-1.2-.675l-10.94-16.737-3.108.086h-8.263l.025,15.926a1.444,1.444,0,0,1-1.425,1.437Zm11-27.161h12.07c7.526-.012,10.449-2.2,10.449-7.785h-.012c0-5.586-2.935-7.76-10.461-7.734H-412.6Zm44.326,27.087a1.429,1.429,0,0,1-1.436-1.425l-.063-45.676a4.041,4.041,0,0,1,2.482-3.733l8.165-3.377a1.411,1.411,0,0,1,.5-.1l.012-.012a1.318,1.318,0,0,1,1.326,1.313l.061,51.559a1.447,1.447,0,0,1-1.424,1.45Zm82.44-3.843-.061-46.083a4.176,4.176,0,0,1,4.163-4.174l37.6-.05a1.428,1.428,0,0,1,1.436,1.425v8.4a1.428,1.428,0,0,1-1.424,1.436l-29.26.037v10.449l19.878-.024a1.428,1.428,0,0,1,1.437,1.425,1.481,1.481,0,0,1-.074.466l-.025.075-3.23,7.87a1.447,1.447,0,0,1-1.326.885l-16.637.024v10.326l29.272-.037a1.436,1.436,0,0,1,1.436,1.424v8.4a1.429,1.429,0,0,1-1.424,1.438l-37.61.049A4.143,4.143,0,0,1-285.807-5373.018Zm51.03-.468-.061-48.414a1.447,1.447,0,0,1,1.425-1.45h9.627a1.428,1.428,0,0,1,1.436,1.424l.049,41.332,21.254-.024a1.428,1.428,0,0,1,1.436,1.424l-.012-.012a1.394,1.394,0,0,1-.11.553l-2.848,6.95a4.028,4.028,0,0,1-3.66,2.344l-24.361.037A4.176,4.176,0,0,1-234.777-5373.486Zm38.089,2.678a1.4,1.4,0,0,1,.123-.577l20.126-49.594a4.176,4.176,0,0,1,3.782-2.431l5.354-.013h5.354a4.177,4.177,0,0,1,3.794,2.419l20.247,49.545a1.355,1.355,0,0,1,.124.577,1.455,1.455,0,0,1-1.425,1.448H-151a1.452,1.452,0,0,1-1.339-.932l-4.051-10.327-21.709.024-4.028,10.339a1.463,1.463,0,0,1-1.338.945h-11.809A1.421,1.421,0,0,1-196.688-5370.808Zm21.832-19.659h.393l.012.012,14.4-.024h.392l-7.624-18.848Zm45.015,20.985a1.428,1.428,0,0,1-1.437-1.424l-.061-48.416a4.176,4.176,0,0,1,4.163-4.175l19.769-.024c8.693-.012,14.538,1.362,18.393,4.3,3.794,2.9,5.648,7.479,5.648,14.01.012,8.915-3.511,14.2-11.1,16.6l11.383,16.871-.025-.014a1.415,1.415,0,0,1,.233.787,1.446,1.446,0,0,1-1.424,1.449h-11a1.388,1.388,0,0,1-1.2-.675l-10.94-16.735-3.108.086h-8.263l.024,15.925a1.444,1.444,0,0,1-1.424,1.436Zm11-27.161h12.07c7.514-.012,10.437-2.2,10.437-7.785s-2.947-7.759-10.461-7.735h-12.07Zm-358.074-1.338v-1.46l-.012-12.341a11.244,11.244,0,0,1,11.234-11.259l35.13-.049a1.32,1.32,0,0,1,1.326,1.326l-.012-.024a1.422,1.422,0,0,1-.1.5l-2.874,8.128a4.063,4.063,0,0,1-3.757,2.517l-26.5.037a14.466,14.466,0,0,0-13.629,9.7.6.6,0,0,0-.025.062,13.983,13.983,0,0,0-.663,2.861v.012c-.012.024-.025.049-.061.049A.058.058,0,0,1-476.913-5397.981Z" transform="translate(477.001 5424)" fill="#fff"/>
</svg>
