<svg xmlns="http://www.w3.org/2000/svg" width="128.018" height="192.965" viewBox="0 0 128.018 192.965">
  <g id="question-mb" transform="translate(-997.892 -339.947)">
    <path id="Caminho_549" data-name="Caminho 549" d="M1015.337,358.062q17.442-18.116,48.845-18.115,29.25,0,45.49,12.882t16.238,35.963q0,13.957-6.576,23.483t-18.921,20.531q-10.2,9.4-15.029,15.834a24.365,24.365,0,0,0-4.831,15.03h-44.819a52.325,52.325,0,0,1,3.086-18.787,50.045,50.045,0,0,1,7.112-13.15,139.862,139.862,0,0,1,10.736-11.809,78.685,78.685,0,0,0,9.8-10.869,17.636,17.636,0,0,0,3.086-10.333q0-5.9-2.549-8.588t-8.454-2.684q-7.516,0-11,5.1t-3.49,16.1H997.892Q997.892,376.182,1015.337,358.062Zm61.593,127.48q7.648,7.65,7.649,19.727,0,12.346-7.649,19.994t-19.995,7.649q-12.077,0-19.726-7.649t-7.648-19.994q0-12.078,7.648-19.727t19.726-7.648Q1069.277,477.894,1076.93,485.542Z" fill="#56B835"/>
  </g>
</svg>
