<svg xmlns="http://www.w3.org/2000/svg" width="128.017" height="192.966" viewBox="0 0 128.017 192.966">
  <path id="_question" data-name=" question" d="M1425,307.829q17.442-18.115,48.845-18.116,29.25,0,45.49,12.882t16.237,35.963q0,13.959-6.575,23.484t-18.921,20.531q-10.2,9.4-15.03,15.834a24.37,24.37,0,0,0-4.83,15.029H1445.4a52.323,52.323,0,0,1,3.086-18.786A50.065,50.065,0,0,1,1455.6,381.5a140.165,140.165,0,0,1,10.735-11.808,78.635,78.635,0,0,0,9.8-10.87,17.631,17.631,0,0,0,3.086-10.333q0-5.9-2.549-8.588t-8.454-2.684q-7.516,0-11,5.1t-3.49,16.1h-46.161Q1407.556,325.949,1425,307.829Zm61.592,127.48q7.65,7.648,7.65,19.726,0,12.348-7.65,19.995t-19.994,7.649q-12.077,0-19.726-7.649t-7.648-19.995q0-12.076,7.648-19.726t19.726-7.649Q1478.941,427.66,1486.593,435.309Z" transform="translate(-1407.556 -289.713)" fill="#56B835"/>
</svg>
