<svg xmlns="http://www.w3.org/2000/svg" width="245.141" height="182.609" viewBox="0 0 245.141 182.609">
  <g id="icon-search" transform="translate(-696.01 -3406.47)">
    <g id="Grupo_594" data-name="Grupo 594" opacity="0.5">
      <line id="Linha_26" data-name="Linha 26" y2="145.368" transform="translate(706.541 3409.433)" fill="none" stroke="#7ac0d3" stroke-miterlimit="10" stroke-width="1"/>
      <line id="Linha_27" data-name="Linha 27" x2="243.995" transform="translate(697.157 3545.979)" fill="none" stroke="#7ac0d3" stroke-miterlimit="10" stroke-width="1"/>
      <path id="Caminho_1146" data-name="Caminho 1146" d="M719.445,3519.289l23.281-23.281,13.377,13.377,47.759-47.759,10.851,10.851,22.032-22.032,20.534,63.736L873.7,3473.9l10.6,10.967,31.041-56.716" fill="none" stroke="#7ac0d3" stroke-miterlimit="10" stroke-width="3"/>
    </g>
    <g id="Grupo_596" data-name="Grupo 596">
      <g id="Grupo_595" data-name="Grupo 595">
        <path id="Caminho_1147" data-name="Caminho 1147" d="M816.313,3526.777l58.838,58.839a11.823,11.823,0,0,1-16.721,0l-50.478-50.478Z" fill="#596d72"/>
        <path id="Caminho_1148" data-name="Caminho 1148" d="M824.673,3518.417l50.478,50.478a11.822,11.822,0,0,1,0,16.721l-58.838-58.839Z" fill="#718689"/>
        <path id="Caminho_1149" data-name="Caminho 1149" d="M803.917,3505.831l16.671,16.671-8.564,8.563-16.67-16.67c1.51-1.332,2.994-2.715,4.428-4.149S802.585,3507.341,803.917,3505.831Z" fill="#596d72"/>
        <path id="Caminho_1150" data-name="Caminho 1150" d="M806.267,3516.733c-.989.983-2.01,1.934-3.049,2.855-.476.413-.952.826-1.44,1.227A64.583,64.583,0,0,1,714.93,3425.4l7.156,7.156a54.463,54.463,0,1,0,77.025,77.019l.67.676Z" fill="#596d72"/>
        <path id="Caminho_1151" data-name="Caminho 1151" d="M712.92,3451.372c.1-.4.213-.789.332-1.152C713.139,3450.595,713.02,3450.977,712.92,3451.372Z" fill="#596d72"/>
        <path id="Caminho_1152" data-name="Caminho 1152" d="M716.169,3442.8c.22-.464.445-.933.7-1.378C716.626,3441.874,716.4,3442.331,716.169,3442.8Z" fill="#596d72"/>
        <path id="Caminho_1153" data-name="Caminho 1153" d="M719.594,3436.728a7.9,7.9,0,0,1,.488-.739C719.907,3436.233,719.751,3436.484,719.594,3436.728Z" fill="#596d72"/>
        <path id="Caminho_1154" data-name="Caminho 1154" d="M722.086,3432.552c.776-.776,1.59-1.534,2.423-2.279-.745.833-1.447,1.684-2.141,2.561Z" fill="#596d72"/>
        <path id="Caminho_1155" data-name="Caminho 1155" d="M777.85,3519.387c1.045-.25,2.072-.532,3.092-.832C779.928,3518.862,778.9,3519.143,777.85,3519.387Z" fill="#596d72"/>
        <path id="Caminho_1156" data-name="Caminho 1156" d="M796.156,3511.242a52.507,52.507,0,0,1-6.655,3.926A57.832,57.832,0,0,0,796.156,3511.242Z" fill="#596d72"/>
        <path id="Caminho_1157" data-name="Caminho 1157" d="M801.39,3507.154c-.745.833-1.5,1.634-2.279,2.417a54.463,54.463,0,1,1-77.025-77.019l.282.282c-.05.069-.113.144-.176.225-.332.42-.663.858-.97,1.3-.388.532-.764,1.083-1.14,1.628a7.9,7.9,0,0,0-.488.739c-.288.426-.563.851-.82,1.29-.056.087-.107.175-.163.262-.275.451-.545.914-.807,1.384-.245.42-.47.858-.7,1.3-.087.157-.162.307-.231.463-.257.445-.482.914-.7,1.378-.175.35-.338.707-.494,1.07-.288.639-.57,1.271-.833,1.916q-.178.414-.338.864c-.169.426-.325.845-.482,1.265-.131.375-.263.751-.382,1.133-.144.382-.263.77-.388,1.171-.119.363-.232.757-.332,1.152a49.277,49.277,0,0,0-1.221,5.221c-.056.288-.112.582-.156.889-.025.15-.05.294-.069.438-.069.382-.125.783-.175,1.183-.044.288-.075.589-.113.883-.069.539-.125,1.083-.163,1.634-.131,1.559-.206,3.149-.206,4.758a54.463,54.463,0,0,0,54.48,54.456c.783,0,1.571-.019,2.354-.05s1.565-.082,2.329-.151,1.54-.137,2.3-.244c.638-.081,1.265-.169,1.9-.269.156-.038.313-.056.463-.081.67-.113,1.34-.244,2-.382.043-.013.106-.019.156-.038.351-.075.7-.15,1.046-.232,1.045-.244,2.078-.525,3.092-.832.821-.244,1.628-.507,2.423-.795.7-.244,1.384-.5,2.06-.77.7-.276,1.377-.558,2.06-.871.632-.288,1.271-.575,1.9-.889a1.085,1.085,0,0,1,.113-.062,52.507,52.507,0,0,0,6.655-3.926c.3-.2.6-.419.9-.632.595-.432,1.19-.87,1.766-1.327.344-.276.689-.545,1.039-.827C800.376,3508.031,800.889,3507.6,801.39,3507.154Z" fill="#a1cbd6" opacity="0.4"/>
        <path id="Caminho_1158" data-name="Caminho 1158" d="M722.086,3432.552c.776-.776,1.59-1.534,2.423-2.279-.745.833-1.447,1.684-2.141,2.561Z" fill="#b7dbe5"/>
        <path id="Caminho_1159" data-name="Caminho 1159" d="M777.85,3519.387c1.045-.25,2.072-.532,3.092-.832C779.928,3518.862,778.9,3519.143,777.85,3519.387Z" fill="#b7dbe5"/>
        <path id="Caminho_1160" data-name="Caminho 1160" d="M796.156,3511.242a52.507,52.507,0,0,1-6.655,3.926A57.832,57.832,0,0,0,796.156,3511.242Z" fill="#b7dbe5"/>
        <path id="Caminho_1161" data-name="Caminho 1161" d="M815.063,3471.061a54.312,54.312,0,0,1-13.673,36.093c-.5.445-1.014.877-1.528,1.3-.35.282-.7.551-1.039.827-.576.457-1.171.9-1.766,1.327-.3.213-.6.432-.9.632a57.832,57.832,0,0,1-6.655,3.926,1.085,1.085,0,0,0-.113.062c-.632.314-1.271.6-1.9.889-.683.313-1.365.6-2.06.871-.676.275-1.365.526-2.06.77-.795.288-1.6.551-2.423.795-1.02.3-2.047.582-3.092.832-.345.082-.695.157-1.046.232-.05.019-.113.025-.156.038-.664.138-1.334.269-2,.382-.15.025-.307.043-.463.081-.632.1-1.259.188-1.9.269-.764.107-1.528.182-2.3.244s-1.553.119-2.329.151-1.571.05-2.354.05a54.463,54.463,0,0,1-54.48-54.456c0-1.609.075-3.2.206-4.758.038-.551.094-1.1.163-1.634.038-.294.069-.595.113-.883.05-.4.106-.8.175-1.183.019-.144.044-.288.069-.438.044-.307.1-.6.156-.889a49.277,49.277,0,0,1,1.221-5.221c.1-.4.219-.777.332-1.152.125-.4.244-.789.388-1.171.119-.382.251-.758.382-1.133.157-.42.313-.839.482-1.265l.338-.864c.263-.645.545-1.277.833-1.916.156-.363.319-.72.494-1.07.226-.47.457-.927.7-1.378.069-.156.144-.306.231-.463.232-.438.464-.864.7-1.3.262-.47.532-.933.807-1.384.056-.087.107-.175.163-.262.257-.439.532-.864.82-1.29.157-.244.313-.5.488-.739.376-.545.752-1.1,1.14-1.628.307-.444.638-.882.97-1.3.063-.081.126-.156.176-.225.694-.877,1.4-1.728,2.141-2.561a54.465,54.465,0,0,1,90.554,40.788Z" fill="#cee9f2" opacity="0.4"/>
        <path id="Caminho_1162" data-name="Caminho 1162" d="M780.942,3518.555c-1.014.307-2.047.588-3.092.832C778.9,3519.137,779.922,3518.855,780.942,3518.555Z" fill="#cee9f2"/>
        <path id="Caminho_1163" data-name="Caminho 1163" d="M796.156,3511.242a52.507,52.507,0,0,1-6.655,3.926A57.832,57.832,0,0,0,796.156,3511.242Z" fill="#cee9f2"/>
        <path id="Caminho_1164" data-name="Caminho 1164" d="M825.187,3471.061a64.3,64.3,0,0,1-14.851,41.189c-.4.489-.814.964-1.227,1.44-.914,1.04-1.866,2.06-2.842,3.043l-6.486-6.486-.67-.676c.782-.783,1.534-1.584,2.279-2.417a54.465,54.465,0,0,0-76.881-76.881c-.833.745-1.647,1.5-2.423,2.279l-7.156-7.156a64.581,64.581,0,0,1,110.257,45.665Z" fill="#718689"/>
      </g>
      <line id="Linha_28" data-name="Linha 28" x1="0.157" y1="0.157" transform="translate(798.823 3509.283)" fill="none"/>
      <path id="Caminho_1165" data-name="Caminho 1165" d="M710.153,3420.613l.319.326,4.458,4.458,7.156,7.156" fill="none"/>
      <line id="Linha_29" data-name="Linha 29" x1="13.117" y1="13.117" transform="translate(807.231 3517.696)" fill="none"/>
    </g>
  </g>
</svg>
